<svg xmlns="http://www.w3.org/2000/svg" viewBox="0 0 420 520">
  <defs>
    <linearGradient id="sea" x1="0" y1="0" x2="1" y2="1">
      <stop offset="0%" stop-color="#cfe3f8"/>
      <stop offset="100%" stop-color="#a5c5e8"/>
    </linearGradient>
  </defs>
  <rect width="420" height="520" fill="#f4f7fc"/>
  <path d="M0 310 C80 250, 145 295, 220 280 C290 265, 350 305, 420 260 L420 520 L0 520 Z" fill="url(#sea)"/>
  <path d="M252 18l-20 14-18 32-22 18-8 30-19 20-11 28-17 18-4 26-19 27 6 24-9 25 7 28-11 23 10 24-5 22 13 26 18 8 9 14 16 13 19-4 16 11 16-9 7-23 17-22 9-28 8-30 13-20 7-29 9-18 8-25 13-21 11-28-4-28 8-32-17-22-9-31-19-18-14-23-10-25z" fill="#ffffff" stroke="#1b2f6b" stroke-width="3.2" stroke-linejoin="round"/>
  <path d="M259 78l-10 22-7 22-6 27-13 18-8 24-6 30-12 19-7 26-9 24-9 20 7 9 16-18 11-30 15-27 10-28 10-24 10-28 12-20 11-25-2-22-8-18-10-21z" fill="none" stroke="#5d78aa" stroke-width="2"/>
</svg>
