<?xml version="1.0" encoding="UTF-8"?>
<svg width="1600" height="980" viewBox="0 0 1600 980" xmlns="http://www.w3.org/2000/svg">
  <rect width="1600" height="980" fill="#f5f7fb"/>
  <text x="28" y="42" font-size="28" font-family="Arial, sans-serif" font-weight="700" fill="#111827">Management Monitoring Dashboard</text>
  <text x="620" y="42" font-size="22" font-family="Arial, sans-serif" font-weight="700" fill="#6b7280">(9AM - 10AM)</text>
  <text x="1320" y="40" font-size="22" font-family="Arial, sans-serif" fill="#111827">◷</text>
  <text x="1570" y="40" text-anchor="end" font-size="22" font-family="Arial, sans-serif" fill="#111827">Last updated 1:03 pm</text>

  <rect x="20" y="80" rx="16" ry="16" width="375" height="120" fill="#fff" stroke="#dbe2ef"/>
  <rect x="38" y="100" rx="16" ry="16" width="70" height="70" fill="#0a2f73"/>
  <g transform="translate(38,100)" aria-hidden="true"><rect x="13" y="20" width="44" height="32" rx="3" stroke="#ffffff" stroke-width="2.2" fill="none" stroke-linecap="round" stroke-linejoin="round"/>
  <path d="M17 20v-4a3.5 3.5 0 0 1 3.5-3.5h29a3.5 3.5 0 0 1 3.5 3.5v4" stroke="#ffffff" stroke-width="2.2" fill="none" stroke-linecap="round" stroke-linejoin="round"/>
  <circle cx="35" cy="37" r="7.5" stroke="#ffffff" stroke-width="2.2" fill="none" stroke-linecap="round" stroke-linejoin="round"/></g>
  <text x="126" y="116" font-size="16" font-family="Arial, sans-serif" fill="#111827">Total Sales</text>
  <text x="126" y="154" font-size="22" font-family="Arial, sans-serif" font-weight="700" fill="#111827">2620.63 M MMK</text>
  <text x="126" y="178" font-size="15" font-family="Arial, sans-serif" fill="#15803d">↗ 5.9% vs YTD avg value</text>
<rect x="415" y="80" rx="16" ry="16" width="375" height="120" fill="#fff" stroke="#dbe2ef"/>
  <rect x="433" y="100" rx="16" ry="16" width="70" height="70" fill="#0a2f73"/>
  <g transform="translate(433,100)" aria-hidden="true"><path d="M20 16h22l8 8v34H20V16z" stroke="#ffffff" stroke-width="2.2" fill="none" stroke-linecap="round" stroke-linejoin="round"/>
  <path d="M28 32h20 M28 40h20 M28 48h14" stroke="#ffffff" stroke-width="2.2" fill="none" stroke-linecap="round" stroke-linejoin="round"/></g>
  <text x="521" y="116" font-size="16" font-family="Arial, sans-serif" fill="#111827">Invoice / Day</text>
  <text x="521" y="154" font-size="22" font-family="Arial, sans-serif" font-weight="700" fill="#111827">6,434</text>
  <text x="521" y="178" font-size="15" font-family="Arial, sans-serif" fill="#15803d">↗ 14.7% vs YTD avg value</text>
<rect x="810" y="80" rx="16" ry="16" width="375" height="120" fill="#fff" stroke="#dbe2ef"/>
  <rect x="828" y="100" rx="16" ry="16" width="70" height="70" fill="#0a2f73"/>
  <g transform="translate(828,100)" aria-hidden="true"><rect x="11" y="22" width="48" height="30" rx="3.5" stroke="#ffffff" stroke-width="2.2" fill="none" stroke-linecap="round" stroke-linejoin="round"/>
  <rect x="16" y="27" width="38" height="20" rx="2" stroke="#ffffff" stroke-width="2.2" fill="none" stroke-linecap="round" stroke-linejoin="round"/>
  <ellipse cx="35" cy="37" rx="9" ry="10" stroke="#ffffff" stroke-width="2.2" fill="none" stroke-linecap="round" stroke-linejoin="round"/></g>
  <text x="916" y="116" font-size="16" font-family="Arial, sans-serif" fill="#111827">Kyat / Invoice</text>
  <text x="916" y="154" font-size="22" font-family="Arial, sans-serif" font-weight="700" fill="#111827">407,310 MMK</text>
  <text x="916" y="178" font-size="15" font-family="Arial, sans-serif" fill="#dc2626">↘ 7.7% vs YTD avg value</text>
<rect x="1205" y="80" rx="16" ry="16" width="375" height="120" fill="#fff" stroke="#dbe2ef"/>
  <rect x="1223" y="100" rx="16" ry="16" width="70" height="70" fill="#0a2f73"/>
  <g transform="translate(1223,100)" aria-hidden="true"><circle cx="35" cy="25" r="10" stroke="#ffffff" stroke-width="2.2" fill="none" stroke-linecap="round" stroke-linejoin="round"/>
  <path d="M15 53Q35 32 55 53" stroke="#ffffff" stroke-width="2.2" fill="none" stroke-linecap="round" stroke-linejoin="round"/></g>
  <text x="1311" y="116" font-size="16" font-family="Arial, sans-serif" fill="#111827">No. of Customer</text>
  <text x="1311" y="154" font-size="22" font-family="Arial, sans-serif" font-weight="700" fill="#111827">6,434</text>
  <text x="1311" y="178" font-size="15" font-family="Arial, sans-serif" fill="#15803d">↗ 14.7% vs YTD avg value</text>
  <rect x="20" y="215" rx="16" ry="16" width="375" height="330" fill="#072860" stroke="#062150"/>
  <circle cx="108" cy="305" r="55" fill="none" stroke="#e5e7eb" stroke-width="20"/>
  <circle cx="108" cy="305" r="55" fill="none" stroke="#22c55e" stroke-width="20" stroke-dasharray="20.355 345" transform="rotate(-90 108 305)"/>
  <text x="108" y="314" text-anchor="middle" font-size="20" font-family="Arial, sans-serif" font-weight="700" fill="#22c55e">5.9%</text>
  <text x="182" y="300" font-size="20" font-family="Arial, sans-serif" font-weight="700" fill="#fff">TODAY SALE</text>
  <text x="182" y="328" font-size="12" font-family="Arial, sans-serif" fill="#dbeafe">Grand Total vs. YTD</text>
  <line x1="56" y1="375" x2="356" y2="375" stroke="#8aa2ce"/>
  <text x="56" y="418" font-size="14" font-family="Arial, sans-serif" fill="#fff">Today:</text>
  <text x="370" y="418" text-anchor="end" font-size="22" font-family="Arial, sans-serif" font-weight="700" fill="#fff">2620.63M MMK</text>
  <text x="56" y="458" font-size="14" font-family="Arial, sans-serif" fill="#22c55e">↗ YTD avg value:</text>
  <text x="370" y="458" text-anchor="end" font-size="22" font-family="Arial, sans-serif" font-weight="700" fill="#fff">2474.55M MMK</text>

  <rect x="415" y="215" rx="16" ry="16" width="505" height="330" fill="#fff" stroke="#dbe2ef"/>
  <text x="438" y="245" font-size="24" font-family="Arial, sans-serif" font-weight="700" fill="#111827">YTD vs Current Day Comparison</text>
  <line x1="445" y1="280" x2="890" y2="280" stroke="#e5e7eb"/>
<line x1="445" y1="330" x2="890" y2="330" stroke="#e5e7eb"/>
<line x1="445" y1="380" x2="890" y2="380" stroke="#e5e7eb"/>
<line x1="445" y1="430" x2="890" y2="430" stroke="#e5e7eb"/>
<line x1="445" y1="480" x2="890" y2="480" stroke="#e5e7eb"/>
<rect x="457" y="407.4987887379546" width="43.625" height="72.50121126204539" fill="#032a6b"/>
<rect x="506.625" y="411.5402075280508" width="43.625" height="68.4597924719492" fill="#0d4ea6"/>
<text x="478.8125" y="403.4987887379546" text-anchor="middle" font-size="9" font-family="Arial, sans-serif" fill="#0f172a">2.6K</text>
<text x="528.4375" y="407.5402075280508" text-anchor="middle" font-size="9" font-family="Arial, sans-serif" fill="#334155">2.5K</text>
<text x="507.625" y="508" text-anchor="middle" font-size="12" font-family="Arial, sans-serif" fill="#111827">Sales</text>
<rect x="568.25" y="302" width="43.625" height="178" fill="#032a6b"/>
<rect x="617.875" y="324.80465252228134" width="43.625" height="155.19534747771866" fill="#0d4ea6"/>
<text x="590.0625" y="298" text-anchor="middle" font-size="9" font-family="Arial, sans-serif" fill="#0f172a">6.4K</text>
<text x="639.6875" y="320.80465252228134" text-anchor="middle" font-size="9" font-family="Arial, sans-serif" fill="#334155">5.6K</text>
<text x="618.875" y="508" text-anchor="middle" font-size="12" font-family="Arial, sans-serif" fill="#111827">Invoice/Day</text>
<rect x="679.5" y="468.73154938420186" width="43.625" height="11.268450615798164" fill="#032a6b"/>
<rect x="729.125" y="467.7961790724475" width="43.625" height="12.203820927552472" fill="#0d4ea6"/>
<text x="701.3125" y="464.73154938420186" text-anchor="middle" font-size="9" font-family="Arial, sans-serif" fill="#0f172a">407</text>
<text x="750.9375" y="463.7961790724475" text-anchor="middle" font-size="9" font-family="Arial, sans-serif" fill="#334155">441</text>
<text x="730.125" y="508" text-anchor="middle" font-size="12" font-family="Arial, sans-serif" fill="#111827">Kyat/Invoice</text>
<rect x="790.75" y="302" width="43.625" height="178" fill="#032a6b"/>
<rect x="840.375" y="324.80465252228134" width="43.625" height="155.19534747771866" fill="#0d4ea6"/>
<text x="812.5625" y="298" text-anchor="middle" font-size="9" font-family="Arial, sans-serif" fill="#0f172a">6.4K</text>
<text x="862.1875" y="320.80465252228134" text-anchor="middle" font-size="9" font-family="Arial, sans-serif" fill="#334155">5.6K</text>
<text x="841.375" y="508" text-anchor="middle" font-size="12" font-family="Arial, sans-serif" fill="#111827">Customers</text>

  <rect x="935" y="215" rx="16" ry="16" width="645" height="330" fill="#fff" stroke="#dbe2ef"/>
  <rect x="935" y="215" rx="16" ry="16" width="645" height="58" fill="#072860"/>
  <text x="958" y="253" font-size="24" font-family="Arial, sans-serif" font-weight="700" fill="#fff">SALES TREND (Today vs YTD Avg Value)</text>
  <line x1="990" y1="290" x2="1530" y2="290" stroke="#e5e7eb"/>
<text x="982" y="294" text-anchor="end" font-size="9" font-family="Arial, sans-serif" fill="#374151">2550.00M</text>
<line x1="990" y1="331.25" x2="1530" y2="331.25" stroke="#e5e7eb"/>
<text x="982" y="335.25" text-anchor="end" font-size="9" font-family="Arial, sans-serif" fill="#374151">1912.50M</text>
<line x1="990" y1="372.5" x2="1530" y2="372.5" stroke="#e5e7eb"/>
<text x="982" y="376.5" text-anchor="end" font-size="9" font-family="Arial, sans-serif" fill="#374151">1275.00M</text>
<line x1="990" y1="413.75" x2="1530" y2="413.75" stroke="#e5e7eb"/>
<text x="982" y="417.75" text-anchor="end" font-size="9" font-family="Arial, sans-serif" fill="#374151">637.50M</text>
<line x1="990" y1="455" x2="1530" y2="455" stroke="#e5e7eb"/>
<text x="982" y="459" text-anchor="end" font-size="9" font-family="Arial, sans-serif" fill="#374151">0.00M</text>
<rect x="1003" y="416.4612695588235" width="41" height="38.538730441176476" fill="#072860"/>
<rect x="1050" y="418.60952538297084" width="41" height="36.39047461702918" fill="#b0bfd4"/>
<text x="1023.5" y="412.4612695588235" text-anchor="middle" font-size="8.5" font-family="Arial, sans-serif" fill="#0f172a">655.16M</text>
<text x="1070.5" y="414.60952538297084" text-anchor="middle" font-size="8.5" font-family="Arial, sans-serif" fill="#475569">618.64M</text>
<text x="1051" y="485" text-anchor="middle" font-size="12" font-family="Arial, sans-serif" fill="#111827">9:00</text>
<rect x="1111" y="388.7133836411765" width="41" height="66.28661635882352" fill="#072860"/>
<rect x="1158" y="392.4083836587098" width="41" height="62.59161634129018" fill="#b0bfd4"/>
<text x="1131.5" y="384.7133836411765" text-anchor="middle" font-size="8.5" font-family="Arial, sans-serif" fill="#0f172a">1126.87M</text>
<text x="1178.5" y="388.4083836587098" text-anchor="middle" font-size="8.5" font-family="Arial, sans-serif" fill="#475569">1064.06M</text>
<text x="1159" y="485" text-anchor="middle" font-size="12" font-family="Arial, sans-serif" fill="#111827">9:15</text>
<rect x="1219" y="360.96549772352944" width="41" height="94.03450227647059" fill="#072860"/>
<rect x="1266" y="366.2072419344488" width="41" height="88.79275806555117" fill="#b0bfd4"/>
<text x="1239.5" y="356.96549772352944" text-anchor="middle" font-size="8.5" font-family="Arial, sans-serif" fill="#0f172a">1598.59M</text>
<text x="1286.5" y="362.2072419344488" text-anchor="middle" font-size="8.5" font-family="Arial, sans-serif" fill="#475569">1509.48M</text>
<text x="1267" y="485" text-anchor="middle" font-size="12" font-family="Arial, sans-serif" fill="#111827">9:30</text>
<rect x="1327" y="333.21761180588237" width="41" height="121.78238819411766" fill="#072860"/>
<rect x="1374" y="340.0061002101878" width="41" height="114.9938997898122" fill="#b0bfd4"/>
<text x="1347.5" y="329.21761180588237" text-anchor="middle" font-size="8.5" font-family="Arial, sans-serif" fill="#0f172a">2070.30M</text>
<text x="1394.5" y="336.0061002101878" text-anchor="middle" font-size="8.5" font-family="Arial, sans-serif" fill="#475569">1954.90M</text>
<text x="1375" y="485" text-anchor="middle" font-size="12" font-family="Arial, sans-serif" fill="#111827">9:45</text>
<rect x="1435" y="305.4697258882353" width="41" height="149.5302741117647" fill="#072860"/>
<rect x="1482" y="313.8049584859268" width="41" height="141.1950415140732" fill="#b0bfd4"/>
<text x="1455.5" y="301.4697258882353" text-anchor="middle" font-size="8.5" font-family="Arial, sans-serif" fill="#0f172a">2542.01M</text>
<text x="1502.5" y="309.8049584859268" text-anchor="middle" font-size="8.5" font-family="Arial, sans-serif" fill="#475569">2400.32M</text>
<text x="1483" y="485" text-anchor="middle" font-size="12" font-family="Arial, sans-serif" fill="#111827">10:00</text>
  
    <text x="970" y="512" font-size="13" font-family="Arial, sans-serif" fill="#111827">Total Today Sales</text>
    <text x="970" y="532" font-size="13" font-family="Arial, sans-serif" font-weight="700" fill="#111827">2620.63M</text>
    <text x="1140" y="512" font-size="13" font-family="Arial, sans-serif" fill="#111827">YTD Avg Value (Same Time)</text>
    <text x="1140" y="532" font-size="13" font-family="Arial, sans-serif" font-weight="700" fill="#111827">2474.55M</text>
    <text x="1330" y="512" font-size="13" font-family="Arial, sans-serif" fill="#111827">Variance</text>
    <text x="1330" y="532" font-size="13" font-family="Arial, sans-serif" font-weight="700" fill="#15803d">+146.08M</text>
    <text x="1455" y="512" font-size="13" font-family="Arial, sans-serif" fill="#111827">Growth %</text>
    <text x="1455" y="532" font-size="13" font-family="Arial, sans-serif" font-weight="700" fill="#15803d">+5.9%</text>
  

  <rect x="20" y="565" rx="16" ry="16" width="770" height="385" fill="#fff" stroke="#dbe2ef"/>
  <rect x="20" y="565" rx="16" ry="16" width="770" height="56" fill="#072860"/>
  <text x="243" y="602" font-size="24" font-family="Arial, sans-serif" font-weight="700" fill="#fff">Sales Performance by Region &amp; Branch</text>
  
    <rect x="30" y="638" width="258" height="302" rx="8" ry="8" fill="#eef4fb" stroke="#dbe2ef"/>
    
    <defs>
      <linearGradient id="mmLand" x1="0" y1="0" x2="0.3" y2="1">
        <stop offset="0%" stop-color="#f2ebd4"/>
        <stop offset="100%" stop-color="#d9cba5"/>
      </linearGradient>
      <linearGradient id="mmSea" x1="0" y1="0" x2="0" y2="1">
        <stop offset="0%" stop-color="#d5e6f5"/>
        <stop offset="100%" stop-color="#bdd4ea"/>
      </linearGradient>
      <filter id="mmShadow">
        <feDropShadow dx="1.5" dy="2" stdDeviation="2.5" flood-color="#2c4060" flood-opacity="0.2"/>
      </filter>
    </defs>
    <rect x="30" y="636" width="260" height="306" rx="10" ry="10" fill="url(#mmSea)"/>
    <path d="M102.8 654.6 L106.6 651.5 L112.6 648.5 L120.2 645.2 L127.8 646.2 L135.4 650.0 L142.9 652.3 L150.5 650.0 L158.1 647.0 L164.2 650.8 L170.2 653.1 L175.5 647.0 L180.8 652.3 L183.1 661.4 L178.6 667.5 L181.6 674.3 L186.2 681.1 L189.2 686.4 L193.0 691.7 L187.7 696.3 L182.4 700.1 L180.8 706.1 L187.7 713.0 L193.7 716.7 L196.8 721.3 L190.7 727.4 L186.9 731.9 L193.0 737.2 L200.6 744.0 L206.6 750.1 L212.7 753.1 L218.0 754.7 L220.3 760.7 L224.1 764.5 L221.8 770.6 L217.2 772.1 L221.8 777.4 L224.1 781.9 L221.0 786.5 L214.2 790.3 L207.4 794.1 L202.1 799.4 L200.6 807.0 L198.3 813.8 L194.5 822.1 L197.5 829.7 L199.8 835.8 L198.3 844.1 L193.7 851.7 L193.7 859.3 L198.3 865.3 L195.3 873.7 L192.2 882.0 L188.4 888.1 L191.5 895.7 L195.3 904.0 L196.8 912.4 L197.5 920.7 L193.7 927.5 L196.0 932.1 L192.2 932.8 L186.9 924.5 L181.6 913.1 L180.8 904.8 L177.8 895.7 L180.8 885.1 L177.1 873.7 L169.5 859.3 L162.7 850.2 L156.6 842.6 L152.8 835.8 L155.8 829.0 L161.9 822.9 L157.3 816.8 L147.5 809.2 L139.2 801.7 L133.1 797.1 L129.3 803.2 L132.3 811.5 L127.0 820.6 L121.7 815.3 L117.2 806.2 L113.4 796.4 L111.1 788.8 L108.8 781.9 L106.6 775.9 L102.8 769.8 L98.2 764.5 L96.7 759.2 L98.2 755.4 L95.9 749.3 L102.0 744.8 L104.3 738.0 L104.3 729.6 L107.3 722.8 L111.1 715.2 L115.6 708.4 L117.9 701.6 L113.4 694.8 L120.2 689.5 L126.3 681.9 L123.2 675.8 L116.4 670.5 L111.1 663.7 L105.8 659.9 L102.8 654.6 Z" fill="url(#mmLand)" stroke="#8b7d5e" stroke-width="1.8" stroke-linejoin="round" filter="url(#mmShadow)"/>
    <circle cx="157.6" cy="823.3" r="2" fill="#4a6280" opacity="0.55"/>
      <text x="162.6" y="826.3" font-size="7" font-family="Arial, sans-serif" fill="#4a6280" opacity="0.65">Yangon</text>
<circle cx="156.3" cy="746.0" r="2" fill="#4a6280" opacity="0.55"/>
      <text x="161.3" y="749.0" font-size="7" font-family="Arial, sans-serif" fill="#4a6280" opacity="0.65">Mandalay</text>
<circle cx="156.1" cy="779.5" r="2" fill="#4a6280" opacity="0.55"/>
      <text x="161.1" y="782.5" font-size="7" font-family="Arial, sans-serif" fill="#4a6280" opacity="0.65">NPT</text>
    <g id="retail-outlet-pins" aria-label="Retail outlets for listed branches"><g><title>မော်လမြိုင် / Mawlamyine</title><g transform="translate(165.1,829.1)">
    <path d="M0,1 C-9,-5 -12,-24 0,-32 C12,-24 9,-5 0,1 z" fill="#2e7d32" stroke="#fff" stroke-width="2" stroke-linejoin="round"/>
    <circle cx="0" cy="-22" r="8" fill="#fff" stroke="#2e7d32" stroke-width="1.5"/>
    <text x="0" y="-18.5" text-anchor="middle" font-size="10" font-family="Arial, sans-serif" font-weight="700" fill="#2e7d32">4</text>
  </g></g>
<g><title>စက်ဆန်း / Satsan</title><g transform="translate(156.2,823.6)">
    <path d="M0,1 C-9,-5 -12,-24 0,-32 C12,-24 9,-5 0,1 z" fill="#0f766e" stroke="#fff" stroke-width="2" stroke-linejoin="round"/>
    <circle cx="0" cy="-22" r="8" fill="#fff" stroke="#0f766e" stroke-width="1.5"/>
    <text x="0" y="-18.5" text-anchor="middle" font-size="10" font-family="Arial, sans-serif" font-weight="700" fill="#0f766e">8</text>
  </g></g>
<g><title>အင်းစိန်လမ်းသစ် / Lanthit</title><g transform="translate(159.6,823.1)">
    <path d="M0,1 C-9,-5 -12,-24 0,-32 C12,-24 9,-5 0,1 z" fill="#7c3aed" stroke="#fff" stroke-width="2" stroke-linejoin="round"/>
    <circle cx="0" cy="-22" r="8" fill="#fff" stroke="#7c3aed" stroke-width="1.5"/>
    <text x="0" y="-18.5" text-anchor="middle" font-size="10" font-family="Arial, sans-serif" font-weight="700" fill="#7c3aed">7</text>
  </g></g>
<g><title>အရှေ့ဒဂုံ / East Dagon</title><g transform="translate(154.9,826.7)">
    <path d="M0,1 C-9,-5 -12,-24 0,-32 C12,-24 9,-5 0,1 z" fill="#b45309" stroke="#fff" stroke-width="2" stroke-linejoin="round"/>
    <circle cx="0" cy="-22" r="8" fill="#fff" stroke="#b45309" stroke-width="1.5"/>
    <text x="0" y="-18.5" text-anchor="middle" font-size="10" font-family="Arial, sans-serif" font-weight="700" fill="#b45309">9</text>
  </g></g>
<g><title>လှိုင်သာယာ / Hlaing Tharyar</title><g transform="translate(156.0,825.8)">
    <path d="M0,1 C-9,-5 -12,-24 0,-32 C12,-24 9,-5 0,1 z" fill="#be123c" stroke="#fff" stroke-width="2" stroke-linejoin="round"/>
    <circle cx="0" cy="-22" r="8" fill="#fff" stroke="#be123c" stroke-width="1.5"/>
    <text x="0" y="-18.5" text-anchor="middle" font-size="9" font-family="Arial, sans-serif" font-weight="700" fill="#be123c">10</text>
  </g></g></g>
    
      <text x="363" y="706" font-size="12" font-family="Arial, sans-serif" fill="#1f2937">MM-105-/-Mawlamyine</text>
      <text x="510" y="706" font-size="12" font-family="Arial, sans-serif" fill="#1f2937">268.83M</text>
      <text x="604" y="706" font-size="12" font-family="Arial, sans-serif" fill="#dc2626">-20.5%</text>
      <text x="690" y="706" font-size="12" font-family="Arial, sans-serif" fill="#1f2937">Surface Covering</text>
    
      <text x="363" y="747" font-size="12" font-family="Arial, sans-serif" fill="#1f2937">MM-103-/-Satsan</text>
      <text x="510" y="747" font-size="12" font-family="Arial, sans-serif" fill="#1f2937">362.80M</text>
      <text x="604" y="747" font-size="12" font-family="Arial, sans-serif" fill="#15803d">+10%</text>
      <text x="690" y="747" font-size="12" font-family="Arial, sans-serif" fill="#1f2937">Home Appliance</text>
    
      <text x="363" y="788" font-size="12" font-family="Arial, sans-serif" fill="#1f2937">MM-101-/-Lanthit</text>
      <text x="510" y="788" font-size="12" font-family="Arial, sans-serif" fill="#1f2937">289.28M</text>
      <text x="604" y="788" font-size="12" font-family="Arial, sans-serif" fill="#15803d">+7.8%</text>
      <text x="690" y="788" font-size="12" font-family="Arial, sans-serif" fill="#1f2937">Home Appliance</text>
    
      <text x="363" y="829" font-size="12" font-family="Arial, sans-serif" fill="#1f2937">MM-104-/-East Dagon</text>
      <text x="510" y="829" font-size="12" font-family="Arial, sans-serif" fill="#1f2937">277.75M</text>
      <text x="604" y="829" font-size="12" font-family="Arial, sans-serif" fill="#15803d">+28.5%</text>
      <text x="690" y="829" font-size="12" font-family="Arial, sans-serif" fill="#1f2937">Home Appliance</text>
    
      <text x="363" y="870" font-size="12" font-family="Arial, sans-serif" fill="#1f2937">MM-107-/-Hlaing Tharyar</text>
      <text x="510" y="870" font-size="12" font-family="Arial, sans-serif" fill="#1f2937">238.24M</text>
      <text x="604" y="870" font-size="12" font-family="Arial, sans-serif" fill="#15803d">+18.4%</text>
      <text x="690" y="870" font-size="12" font-family="Arial, sans-serif" fill="#1f2937">Home Appliance</text>
    
    <rect x="340" y="640" width="440" height="30" fill="#072860"/>
    <text x="362" y="660" font-size="12" font-family="Arial, sans-serif" fill="#fff">Location</text>
    <text x="510" y="660" font-size="12" font-family="Arial, sans-serif" fill="#fff">Today</text>
    <text x="604" y="660" font-size="12" font-family="Arial, sans-serif" fill="#fff">Growth</text>
    <text x="690" y="660" font-size="12" font-family="Arial, sans-serif" fill="#fff">Top Category</text>

    <rect x="340" y="884" width="440" height="48" fill="#0b1d57"/>
    <text x="362" y="913" font-size="12" font-family="Arial, sans-serif" fill="#fff">Gerd Total</text>
    <text x="500" y="913" font-size="12" font-family="Arial, sans-serif" font-weight="700" fill="#fff">2620.63 M</text>
    <text x="594" y="913" font-size="12" font-family="Arial, sans-serif" font-weight="700" fill="#15803d">+5.9%</text>
    <text x="690" y="913" font-size="12" font-family="Arial, sans-serif" fill="#fff">All categories</text>
  

  <rect x="810" y="565" rx="16" ry="16" width="770" height="385" fill="#fff" stroke="#dbe2ef"/>
  <rect x="810" y="565" rx="16" ry="16" width="770" height="56" fill="#072860"/>
  <text x="825" y="602" font-size="20" font-family="Arial, sans-serif" font-weight="700" fill="#fff">Top &amp; Bottom Performance Category (Growth %)</text>
  <circle cx="980" cy="775" r="118" fill="none" stroke="#0b3b92" stroke-width="42" stroke-dasharray="221.2993427437592 520.116523503432" stroke-dashoffset="0" transform="rotate(-90 980 775)"/><text x="1088.0" y="691.0" text-anchor="start" font-size="10.5" font-family="Arial, sans-serif" font-weight="700" fill="#0f172a" stroke="#ffffff" stroke-width="2.6" paint-order="stroke fill">441.29M</text>
<circle cx="980" cy="775" r="118" fill="none" stroke="#144bb0" stroke-width="42" stroke-dasharray="138.9131617472163 602.5027044999749" stroke-dashoffset="-221.2993427437592" transform="rotate(-90 980 775)"/><text x="1064.0" y="885.6" text-anchor="start" font-size="10.5" font-family="Arial, sans-serif" font-weight="700" fill="#0f172a" stroke="#ffffff" stroke-width="2.6" paint-order="stroke fill">277.01M</text>
<circle cx="980" cy="775" r="118" fill="none" stroke="#2d63c0" stroke-width="42" stroke-dasharray="134.76827175463814 606.647594492553" stroke-dashoffset="-360.2125044909755" transform="rotate(-90 980 775)"/><text x="917.9" y="900.8" text-anchor="end" font-size="10.5" font-family="Arial, sans-serif" font-weight="700" fill="#0f172a" stroke="#ffffff" stroke-width="2.6" paint-order="stroke fill">268.74M</text>
<circle cx="980" cy="775" r="118" fill="none" stroke="#6d93d1" stroke-width="42" stroke-dasharray="124.04436980018929 617.3714964470018" stroke-dashoffset="-494.98077624561364" transform="rotate(-90 980 775)"/><text x="846.0" y="773.9" text-anchor="end" font-size="10.5" font-family="Arial, sans-serif" font-weight="700" fill="#0f172a" stroke="#ffffff" stroke-width="2.6" paint-order="stroke fill">247.36M</text>
<circle cx="980" cy="775" r="118" fill="none" stroke="#adbfde" stroke-width="42" stroke-dasharray="122.39072020138822 619.0251460458029" stroke-dashoffset="-619.0251460458029" transform="rotate(-90 980 775)"/><text x="913.6" y="651.7" text-anchor="end" font-size="10.5" font-family="Arial, sans-serif" font-weight="700" fill="#0f172a" stroke="#ffffff" stroke-width="2.6" paint-order="stroke fill">244.06M</text>
  <circle cx="980" cy="775" r="74" fill="#fff"/>
  <text x="980" y="759" text-anchor="middle" font-size="16" font-family="Arial, sans-serif" fill="#4b5563">Total Sales</text>
  <text x="980" y="793" text-anchor="middle" font-size="24" font-family="Arial, sans-serif" font-weight="700" fill="#111827">2620.63 M</text>
  <text x="980" y="819" text-anchor="middle" font-size="15" font-family="Arial, sans-serif" fill="#4b5563">MMK</text>
  
    <text x="1157" y="687" font-size="12" font-family="Arial, sans-serif" fill="#374151">Category</text>
    <text x="1490" y="687" text-anchor="end" font-size="12" font-family="Arial, sans-serif" fill="#374151">Sales</text>
    <text x="1550" y="687" text-anchor="end" font-size="12" font-family="Arial, sans-serif" fill="#374151">Growth</text>
  
<circle cx="1145" cy="705" r="8" fill="#1e3a8a"/>
      <text x="1167" y="713" font-size="12" font-family="Arial, sans-serif" fill="#111827">Surface Covering</text>
      <text x="1490" y="713" text-anchor="end" font-size="12" font-family="Arial, sans-serif" fill="#111827">441.29M</text>
      <text x="1550" y="713" text-anchor="end" font-size="12" font-family="Arial, sans-serif" font-weight="700" fill="#15803d">+26.5%</text>
<circle cx="1145" cy="747" r="8" fill="#1e3a8a"/>
      <text x="1167" y="755" font-size="12" font-family="Arial, sans-serif" fill="#111827">Home Appliance</text>
      <text x="1490" y="755" text-anchor="end" font-size="12" font-family="Arial, sans-serif" fill="#111827">277.01M</text>
      <text x="1550" y="755" text-anchor="end" font-size="12" font-family="Arial, sans-serif" font-weight="700" fill="#dc2626">-20.7%</text>
<circle cx="1145" cy="789" r="8" fill="#1e3a8a"/>
      <text x="1167" y="797" font-size="12" font-family="Arial, sans-serif" fill="#111827">Furniture and Bedding</text>
      <text x="1490" y="797" text-anchor="end" font-size="12" font-family="Arial, sans-serif" fill="#111827">268.74M</text>
      <text x="1550" y="797" text-anchor="end" font-size="12" font-family="Arial, sans-serif" font-weight="700" fill="#15803d">+25%</text>
<circle cx="1145" cy="831" r="8" fill="#1e3a8a"/>
      <text x="1167" y="839" font-size="12" font-family="Arial, sans-serif" fill="#111827">Sanitary Ware</text>
      <text x="1490" y="839" text-anchor="end" font-size="12" font-family="Arial, sans-serif" fill="#111827">247.36M</text>
      <text x="1550" y="839" text-anchor="end" font-size="12" font-family="Arial, sans-serif" font-weight="700" fill="#15803d">+13.9%</text>
<circle cx="1145" cy="873" r="8" fill="#1e3a8a"/>
      <text x="1167" y="881" font-size="12" font-family="Arial, sans-serif" fill="#111827">Houseware and Kitchen</text>
      <text x="1490" y="881" text-anchor="end" font-size="12" font-family="Arial, sans-serif" fill="#111827">244.06M</text>
      <text x="1550" y="881" text-anchor="end" font-size="12" font-family="Arial, sans-serif" font-weight="700" fill="#15803d">+43.1%</text>
</svg>