<?xml version="1.0" encoding="UTF-8"?>
<svg width="1600" height="980" viewBox="0 0 1600 980" xmlns="http://www.w3.org/2000/svg">
  <rect width="1600" height="980" fill="#f5f7fb"/>
  <text x="28" y="42" font-size="28" font-family="Arial, sans-serif" font-weight="700" fill="#111827">Management Monitoring Dashboard</text>
  <text x="620" y="42" font-size="22" font-family="Arial, sans-serif" font-weight="700" fill="#6b7280">(9AM - 10AM)</text>
  <text x="1320" y="40" font-size="22" font-family="Arial, sans-serif" fill="#111827">◷</text>
  <text x="1570" y="40" text-anchor="end" font-size="22" font-family="Arial, sans-serif" fill="#111827">Last updated 2:01 pm</text>

  <rect x="20" y="80" rx="16" ry="16" width="375" height="120" fill="#fff" stroke="#dbe2ef"/>
  <rect x="38" y="100" rx="16" ry="16" width="70" height="70" fill="#0a2f73"/><g transform="translate(73,135)" fill="#e8eef9">
      <rect x="-20" y="2" width="10" height="18" rx="2"/>
      <rect x="-6" y="-8" width="10" height="28" rx="2"/>
      <rect x="8" y="-16" width="10" height="36" rx="2"/>
    </g>
  <text x="126" y="116" font-size="16" font-family="Arial, sans-serif" fill="#111827">Total Sales</text>
  <text x="126" y="154" font-size="22" font-family="Arial, sans-serif" font-weight="700" fill="#111827">2948.98 M MMK</text>
  <text x="126" y="178" font-size="15" font-family="Arial, sans-serif" fill="#15803d">↗ 19.3% vs YTD avg value</text>
<rect x="415" y="80" rx="16" ry="16" width="375" height="120" fill="#fff" stroke="#dbe2ef"/>
  <rect x="433" y="100" rx="16" ry="16" width="70" height="70" fill="#0a2f73"/><g transform="translate(468,135)" fill="none" stroke="#e8eef9" stroke-width="2" stroke-linecap="round" stroke-linejoin="round">
      <rect x="-18" y="-22" width="36" height="44" rx="4"/>
      <path d="M-11 -8 h22 M-11 0 h16 M-11 8 h22 M-11 16 h12" />
    </g>
  <text x="521" y="116" font-size="16" font-family="Arial, sans-serif" fill="#111827">Invoice / Day</text>
  <text x="521" y="154" font-size="22" font-family="Arial, sans-serif" font-weight="700" fill="#111827">5,842</text>
  <text x="521" y="178" font-size="15" font-family="Arial, sans-serif" fill="#15803d">↗ 4.2% vs YTD avg value</text>
<rect x="810" y="80" rx="16" ry="16" width="375" height="120" fill="#fff" stroke="#dbe2ef"/>
  <rect x="828" y="100" rx="16" ry="16" width="70" height="70" fill="#0a2f73"/><g transform="translate(863,135)">
      <rect x="-24" y="-14" width="48" height="30" rx="4" fill="#1e3a8a" stroke="#e8eef9" stroke-width="2"/>
      <circle cx="0" cy="1" r="9" fill="none" stroke="#e8eef9" stroke-width="1.8"/>
      <path d="M0 -5 v12 M-5 1 h10" stroke="#e8eef9" stroke-width="1.8" fill="none" stroke-linecap="round"/>
    </g>
  <text x="916" y="116" font-size="16" font-family="Arial, sans-serif" fill="#111827">Kyat / Invoice</text>
  <text x="916" y="154" font-size="22" font-family="Arial, sans-serif" font-weight="700" fill="#111827">504,790 MMK</text>
  <text x="916" y="178" font-size="15" font-family="Arial, sans-serif" fill="#15803d">↗ 14.6% vs YTD avg value</text>
<rect x="1205" y="80" rx="16" ry="16" width="375" height="120" fill="#fff" stroke="#dbe2ef"/>
  <rect x="1223" y="100" rx="16" ry="16" width="70" height="70" fill="#0a2f73"/><g transform="translate(1258,135)" fill="none" stroke="#e8eef9" stroke-width="2" stroke-linecap="round" stroke-linejoin="round">
      <circle cx="-10" cy="-6" r="7" />
      <path d="M-22 16 Q-22 6 -10 6 Q2 6 2 16" />
      <circle cx="10" cy="-8" r="6" />
      <path d="M4 16 Q4 8 10 8 Q18 8 20 16" />
    </g>
  <text x="1311" y="116" font-size="16" font-family="Arial, sans-serif" fill="#111827">No. of Customer</text>
  <text x="1311" y="154" font-size="22" font-family="Arial, sans-serif" font-weight="700" fill="#111827">5,842</text>
  <text x="1311" y="178" font-size="15" font-family="Arial, sans-serif" fill="#15803d">↗ 4.2% vs YTD avg value</text>
  <rect x="20" y="215" rx="16" ry="16" width="375" height="330" fill="#072860" stroke="#062150"/>
  <circle cx="108" cy="305" r="55" fill="none" stroke="#e5e7eb" stroke-width="20"/>
  <circle cx="108" cy="305" r="55" fill="none" stroke="#22c55e" stroke-width="20" stroke-dasharray="66.58500000000001 345" transform="rotate(-90 108 305)"/>
  <text x="108" y="314" text-anchor="middle" font-size="20" font-family="Arial, sans-serif" font-weight="700" fill="#22c55e">19.3%</text>
  <text x="182" y="300" font-size="20" font-family="Arial, sans-serif" font-weight="700" fill="#fff">TODAY SALE</text>
  <text x="182" y="328" font-size="12" font-family="Arial, sans-serif" fill="#dbeafe">Grand Total vs. YTD</text>
  <line x1="56" y1="375" x2="356" y2="375" stroke="#8aa2ce"/>
  <text x="56" y="418" font-size="14" font-family="Arial, sans-serif" fill="#fff">Today:</text>
  <text x="370" y="418" text-anchor="end" font-size="22" font-family="Arial, sans-serif" font-weight="700" fill="#fff">2948.98M MMK</text>
  <text x="56" y="458" font-size="14" font-family="Arial, sans-serif" fill="#22c55e">↗ YTD avg value:</text>
  <text x="370" y="458" text-anchor="end" font-size="22" font-family="Arial, sans-serif" font-weight="700" fill="#fff">2470.99M MMK</text>

  <rect x="415" y="215" rx="16" ry="16" width="505" height="330" fill="#fff" stroke="#dbe2ef"/>
  <text x="438" y="245" font-size="24" font-family="Arial, sans-serif" font-weight="700" fill="#111827">YTD vs Current Day Comparison</text>
  <line x1="445" y1="280" x2="890" y2="280" stroke="#e5e7eb"/>
<line x1="445" y1="330" x2="890" y2="330" stroke="#e5e7eb"/>
<line x1="445" y1="380" x2="890" y2="380" stroke="#e5e7eb"/>
<line x1="445" y1="430" x2="890" y2="430" stroke="#e5e7eb"/>
<line x1="445" y1="480" x2="890" y2="480" stroke="#e5e7eb"/>
<rect x="457" y="390.147448037316" width="43.625" height="89.852551962684" fill="#032a6b"/>
<rect x="506.625" y="404.7115105936531" width="43.625" height="75.28848940634688" fill="#0d4ea6"/>
<text x="478.8125" y="386.147448037316" text-anchor="middle" font-size="9" font-family="Arial, sans-serif" fill="#0f172a">2.9K</text>
<text x="528.4375" y="400.7115105936531" text-anchor="middle" font-size="9" font-family="Arial, sans-serif" fill="#334155">2.5K</text>
<text x="507.625" y="508" text-anchor="middle" font-size="12" font-family="Arial, sans-serif" fill="#111827">Sales</text>
<rect x="568.25" y="302" width="43.625" height="178" fill="#032a6b"/>
<rect x="617.875" y="309.1311246277282" width="43.625" height="170.86887537227182" fill="#0d4ea6"/>
<text x="590.0625" y="298" text-anchor="middle" font-size="9" font-family="Arial, sans-serif" fill="#0f172a">5.8K</text>
<text x="639.6875" y="305.1311246277282" text-anchor="middle" font-size="9" font-family="Arial, sans-serif" fill="#334155">5.6K</text>
<text x="618.875" y="508" text-anchor="middle" font-size="12" font-family="Arial, sans-serif" fill="#111827">Invoice/Day</text>
<rect x="679.5" y="464.6195563227176" width="43.625" height="15.38044367728244" fill="#032a6b"/>
<rect x="729.125" y="466.5746977426747" width="43.625" height="13.425302257325303" fill="#0d4ea6"/>
<text x="701.3125" y="460.6195563227176" text-anchor="middle" font-size="9" font-family="Arial, sans-serif" fill="#0f172a">505</text>
<text x="750.9375" y="462.5746977426747" text-anchor="middle" font-size="9" font-family="Arial, sans-serif" fill="#334155">441</text>
<text x="730.125" y="508" text-anchor="middle" font-size="12" font-family="Arial, sans-serif" fill="#111827">Kyat/Invoice</text>
<rect x="790.75" y="302" width="43.625" height="178" fill="#032a6b"/>
<rect x="840.375" y="309.1311246277282" width="43.625" height="170.86887537227182" fill="#0d4ea6"/>
<text x="812.5625" y="298" text-anchor="middle" font-size="9" font-family="Arial, sans-serif" fill="#0f172a">5.8K</text>
<text x="862.1875" y="305.1311246277282" text-anchor="middle" font-size="9" font-family="Arial, sans-serif" fill="#334155">5.6K</text>
<text x="841.375" y="508" text-anchor="middle" font-size="12" font-family="Arial, sans-serif" fill="#111827">Customers</text>

  <rect x="935" y="215" rx="16" ry="16" width="645" height="330" fill="#fff" stroke="#dbe2ef"/>
  <rect x="935" y="215" rx="16" ry="16" width="645" height="58" fill="#072860"/>
  <text x="958" y="253" font-size="24" font-family="Arial, sans-serif" font-weight="700" fill="#fff">SALES TREND (Today vs YTD Avg)</text>
  <line x1="990" y1="290" x2="1530" y2="290" stroke="#e5e7eb"/>
<text x="982" y="294" text-anchor="end" font-size="9" font-family="Arial, sans-serif" fill="#374151">2900.00M</text>
<line x1="990" y1="331.25" x2="1530" y2="331.25" stroke="#e5e7eb"/>
<text x="982" y="335.25" text-anchor="end" font-size="9" font-family="Arial, sans-serif" fill="#374151">2175.00M</text>
<line x1="990" y1="372.5" x2="1530" y2="372.5" stroke="#e5e7eb"/>
<text x="982" y="376.5" text-anchor="end" font-size="9" font-family="Arial, sans-serif" fill="#374151">1450.00M</text>
<line x1="990" y1="413.75" x2="1530" y2="413.75" stroke="#e5e7eb"/>
<text x="982" y="417.75" text-anchor="end" font-size="9" font-family="Arial, sans-serif" fill="#374151">725.00M</text>
<line x1="990" y1="455" x2="1530" y2="455" stroke="#e5e7eb"/>
<text x="982" y="459" text-anchor="end" font-size="9" font-family="Arial, sans-serif" fill="#374151">0.00M</text>
<rect x="1003" y="416.86662568534484" width="41" height="38.13337431465517" fill="#072860"/>
<rect x="1050" y="423.0476059343366" width="41" height="31.95239406566339" fill="#b0bfd4"/>
<text x="1023.5" y="412.86662568534484" text-anchor="middle" font-size="8.5" font-family="Arial, sans-serif" fill="#0f172a">737.25M</text>
<text x="1070.5" y="419.0476059343366" text-anchor="middle" font-size="8.5" font-family="Arial, sans-serif" fill="#475569">617.75M</text>
<text x="1051" y="485" text-anchor="middle" font-size="12" font-family="Arial, sans-serif" fill="#111827">9:00</text>
<rect x="1111" y="389.41059617879307" width="41" height="65.5894038212069" fill="#072860"/>
<rect x="1158" y="400.04188220705896" width="41" height="54.95811779294103" fill="#b0bfd4"/>
<text x="1131.5" y="385.41059617879307" text-anchor="middle" font-size="8.5" font-family="Arial, sans-serif" fill="#0f172a">1268.06M</text>
<text x="1178.5" y="396.04188220705896" text-anchor="middle" font-size="8.5" font-family="Arial, sans-serif" fill="#475569">1062.52M</text>
<text x="1159" y="485" text-anchor="middle" font-size="12" font-family="Arial, sans-serif" fill="#111827">9:15</text>
<rect x="1219" y="361.9545666722414" width="41" height="93.04543332775862" fill="#072860"/>
<rect x="1266" y="377.0361584797813" width="41" height="77.96384152021868" fill="#b0bfd4"/>
<text x="1239.5" y="357.9545666722414" text-anchor="middle" font-size="8.5" font-family="Arial, sans-serif" fill="#0f172a">1798.88M</text>
<text x="1286.5" y="373.0361584797813" text-anchor="middle" font-size="8.5" font-family="Arial, sans-serif" fill="#475569">1507.30M</text>
<text x="1267" y="485" text-anchor="middle" font-size="12" font-family="Arial, sans-serif" fill="#111827">9:30</text>
<rect x="1327" y="334.49853716568964" width="41" height="120.50146283431035" fill="#072860"/>
<rect x="1374" y="354.03043475250365" width="41" height="100.96956524749632" fill="#b0bfd4"/>
<text x="1347.5" y="330.49853716568964" text-anchor="middle" font-size="8.5" font-family="Arial, sans-serif" fill="#0f172a">2329.69M</text>
<text x="1394.5" y="350.03043475250365" text-anchor="middle" font-size="8.5" font-family="Arial, sans-serif" fill="#475569">1952.08M</text>
<text x="1375" y="485" text-anchor="middle" font-size="12" font-family="Arial, sans-serif" fill="#111827">9:45</text>
<rect x="1435" y="307.0425076591379" width="41" height="147.95749234086207" fill="#072860"/>
<rect x="1482" y="331.024711025226" width="41" height="123.97528897477397" fill="#b0bfd4"/>
<text x="1455.5" y="303.0425076591379" text-anchor="middle" font-size="8.5" font-family="Arial, sans-serif" fill="#0f172a">2860.51M</text>
<text x="1502.5" y="327.024711025226" text-anchor="middle" font-size="8.5" font-family="Arial, sans-serif" fill="#475569">2396.86M</text>
<text x="1483" y="485" text-anchor="middle" font-size="12" font-family="Arial, sans-serif" fill="#111827">10:00</text>
  
    <text x="970" y="512" font-size="13" font-family="Arial, sans-serif" fill="#111827">Total Today Sales</text>
    <text x="970" y="532" font-size="13" font-family="Arial, sans-serif" font-weight="700" fill="#111827">2948.98M</text>
    <text x="1140" y="512" font-size="13" font-family="Arial, sans-serif" fill="#111827">YTD Avg (Same Time)</text>
    <text x="1140" y="532" font-size="13" font-family="Arial, sans-serif" font-weight="700" fill="#111827">2470.99M</text>
    <text x="1330" y="512" font-size="13" font-family="Arial, sans-serif" fill="#111827">Variance</text>
    <text x="1330" y="532" font-size="13" font-family="Arial, sans-serif" font-weight="700" fill="#15803d">+478.00M</text>
    <text x="1455" y="512" font-size="13" font-family="Arial, sans-serif" fill="#111827">Growth %</text>
    <text x="1455" y="532" font-size="13" font-family="Arial, sans-serif" font-weight="700" fill="#15803d">+19.3%</text>
  

  <rect x="20" y="565" rx="16" ry="16" width="770" height="385" fill="#fff" stroke="#dbe2ef"/>
  <rect x="20" y="565" rx="16" ry="16" width="770" height="56" fill="#072860"/>
  <text x="243" y="602" font-size="24" font-family="Arial, sans-serif" font-weight="700" fill="#fff">Sales Performance by Region &amp; Branch</text>
  
    <rect x="30" y="638" width="258" height="302" rx="8" ry="8" fill="#eef4fb" stroke="#dbe2ef"/>
    <g transform="translate(32 642) scale(0.605 0.57)"><defs>
    <linearGradient id="mmEmbedsea" x1="0" y1="0" x2="1" y2="1">
      <stop offset="0%" stop-color="#e2edfb"/>
      <stop offset="100%" stop-color="#bdd4ef"/>
    </linearGradient>
    <filter id="mmEmbedcoastGlow" x="-8%" y="-8%" width="116%" height="116%">
      <feDropShadow dx="0" dy="1.5" stdDeviation="1.8" flood-color="#072860" flood-opacity="0.14"/>
    </filter>
  </defs>
  <rect width="420" height="520" fill="#f3f7fd"/>
  <path d="M0 310 C80 250 145 295 220 280 C290 265 350 305 420 260 L420 520 L0 520 Z" fill="url(#mmEmbedsea)"/>
  <path
    filter="url(#mmEmbedcoastGlow)"
    fill="#ffffff"
    stroke="#072860"
    stroke-width="2.2"
    stroke-linejoin="round"
    d="M252 18l-20 14-18 32-22 18-8 30-19 20-11 28-17 18-4 26-19 27 6 24-9 25 7 28-11 23 10 24-5 22 13 26 18 8 9 14 16 13 19-4 16 11 16-9 7-23 17-22 9-28 8-30 13-20 7-29 9-18 8-25 13-21 11-28-4-28 8-32-17-22-9-31-19-18-14-23-10-25z"
  /></g>
    <g id="branch-location-pins"><g transform="translate(218.3,836.6)">
    <path d="M0,1 C-9,-5 -12,-24 0,-32 C12,-24 9,-5 0,1 z" fill="#072860" stroke="#fff" stroke-width="2" stroke-linejoin="round"/>
    <circle cx="0" cy="-22" r="8" fill="#fff" stroke="#072860" stroke-width="1.5"/>
    <text x="0" y="-18.5" text-anchor="middle" font-size="11" font-family="Arial, sans-serif" font-weight="700" fill="#072860">1</text>
  </g>
<g transform="translate(137.8,830.4)">
    <path d="M0,1 C-9,-5 -12,-24 0,-32 C12,-24 9,-5 0,1 z" fill="#0b4da2" stroke="#fff" stroke-width="2" stroke-linejoin="round"/>
    <circle cx="0" cy="-22" r="8" fill="#fff" stroke="#0b4da2" stroke-width="1.5"/>
    <text x="0" y="-18.5" text-anchor="middle" font-size="11" font-family="Arial, sans-serif" font-weight="700" fill="#0b4da2">2</text>
  </g>
<g transform="translate(144.8,829.6)">
    <path d="M0,1 C-9,-5 -12,-24 0,-32 C12,-24 9,-5 0,1 z" fill="#1565c0" stroke="#fff" stroke-width="2" stroke-linejoin="round"/>
    <circle cx="0" cy="-22" r="8" fill="#fff" stroke="#1565c0" stroke-width="1.5"/>
    <text x="0" y="-18.5" text-anchor="middle" font-size="11" font-family="Arial, sans-serif" font-weight="700" fill="#1565c0">3</text>
  </g>
<g transform="translate(133.6,840.1)">
    <path d="M0,1 C-9,-5 -12,-24 0,-32 C12,-24 9,-5 0,1 z" fill="#2e7d32" stroke="#fff" stroke-width="2" stroke-linejoin="round"/>
    <circle cx="0" cy="-22" r="8" fill="#fff" stroke="#2e7d32" stroke-width="1.5"/>
    <text x="0" y="-18.5" text-anchor="middle" font-size="11" font-family="Arial, sans-serif" font-weight="700" fill="#2e7d32">4</text>
  </g>
<g transform="translate(140.6,839.4)">
    <path d="M0,1 C-9,-5 -12,-24 0,-32 C12,-24 9,-5 0,1 z" fill="#6a1b9a" stroke="#fff" stroke-width="2" stroke-linejoin="round"/>
    <circle cx="0" cy="-22" r="8" fill="#fff" stroke="#6a1b9a" stroke-width="1.5"/>
    <text x="0" y="-18.5" text-anchor="middle" font-size="11" font-family="Arial, sans-serif" font-weight="700" fill="#6a1b9a">5</text>
  </g></g>
    
      <text x="363" y="706" font-size="12" font-family="Arial, sans-serif" fill="#1f2937">MM-105-/-Mawlamyine</text>
      <text x="510" y="706" font-size="12" font-family="Arial, sans-serif" fill="#1f2937">387.38M</text>
      <text x="604" y="706" font-size="12" font-family="Arial, sans-serif" fill="#15803d">+14.7%</text>
      <text x="690" y="706" font-size="12" font-family="Arial, sans-serif" fill="#1f2937">Surface Covering</text>
    
      <text x="363" y="747" font-size="12" font-family="Arial, sans-serif" fill="#1f2937">MM-103-/-Satsan</text>
      <text x="510" y="747" font-size="12" font-family="Arial, sans-serif" fill="#1f2937">375.64M</text>
      <text x="604" y="747" font-size="12" font-family="Arial, sans-serif" fill="#15803d">+14.1%</text>
      <text x="690" y="747" font-size="12" font-family="Arial, sans-serif" fill="#1f2937">Home Appliance</text>
    
      <text x="363" y="788" font-size="12" font-family="Arial, sans-serif" fill="#1f2937">MM-101-/-Lanthit</text>
      <text x="510" y="788" font-size="12" font-family="Arial, sans-serif" fill="#1f2937">332.67M</text>
      <text x="604" y="788" font-size="12" font-family="Arial, sans-serif" fill="#15803d">+24.2%</text>
      <text x="690" y="788" font-size="12" font-family="Arial, sans-serif" fill="#1f2937">Home Appliance</text>
    
      <text x="363" y="829" font-size="12" font-family="Arial, sans-serif" fill="#1f2937">MM-104-/-East Dagon</text>
      <text x="510" y="829" font-size="12" font-family="Arial, sans-serif" fill="#1f2937">247.70M</text>
      <text x="604" y="829" font-size="12" font-family="Arial, sans-serif" fill="#15803d">+14.7%</text>
      <text x="690" y="829" font-size="12" font-family="Arial, sans-serif" fill="#1f2937">Home Appliance</text>
    
      <text x="363" y="870" font-size="12" font-family="Arial, sans-serif" fill="#1f2937">MM-107-/-Hlaing Tharyar</text>
      <text x="510" y="870" font-size="12" font-family="Arial, sans-serif" fill="#1f2937">189.71M</text>
      <text x="604" y="870" font-size="12" font-family="Arial, sans-serif" fill="#dc2626">-5.7%</text>
      <text x="690" y="870" font-size="12" font-family="Arial, sans-serif" fill="#1f2937">Home Appliance</text>
    
    <rect x="340" y="640" width="440" height="30" fill="#072860"/>
    <text x="362" y="660" font-size="12" font-family="Arial, sans-serif" fill="#fff">Location</text>
    <text x="510" y="660" font-size="12" font-family="Arial, sans-serif" fill="#fff">Today</text>
    <text x="604" y="660" font-size="12" font-family="Arial, sans-serif" fill="#fff">Growth</text>
    <text x="690" y="660" font-size="12" font-family="Arial, sans-serif" fill="#fff">Top Category</text>

    <rect x="340" y="884" width="440" height="48" fill="#0b1d57"/>
    <text x="362" y="913" font-size="12" font-family="Arial, sans-serif" fill="#fff">Gerd Total</text>
    <text x="500" y="913" font-size="12" font-family="Arial, sans-serif" font-weight="700" fill="#fff">2948.98 M</text>
    <text x="594" y="913" font-size="12" font-family="Arial, sans-serif" font-weight="700" fill="#15803d">+19.3%</text>
    <text x="690" y="913" font-size="12" font-family="Arial, sans-serif" fill="#fff">All categories</text>
  

  <rect x="810" y="565" rx="16" ry="16" width="770" height="385" fill="#fff" stroke="#dbe2ef"/>
  <rect x="810" y="565" rx="16" ry="16" width="770" height="56" fill="#072860"/>
  <text x="825" y="602" font-size="20" font-family="Arial, sans-serif" font-weight="700" fill="#fff">Top &amp; Bottom Performance Category (Growth %)</text>
  <circle cx="980" cy="775" r="118" fill="none" stroke="#0b3b92" stroke-width="42" stroke-dasharray="198.4393089947569 542.9765572524343" stroke-dashoffset="0" transform="rotate(-90 980 775)"/><text x="1079.9" y="680.3" text-anchor="start" font-size="10.5" font-family="Arial, sans-serif" font-weight="700" fill="#0f172a" stroke="#ffffff" stroke-width="2.6" paint-order="stroke fill">443.33M</text>
<circle cx="980" cy="775" r="118" fill="none" stroke="#144bb0" stroke-width="42" stroke-dasharray="144.73623265726297 596.6796335899282" stroke-dashoffset="-198.4393089947569" transform="rotate(-90 980 775)"/><text x="1080.4" y="869.1" text-anchor="start" font-size="10.5" font-family="Arial, sans-serif" font-weight="700" fill="#0f172a" stroke="#ffffff" stroke-width="2.6" paint-order="stroke fill">323.35M</text>
<circle cx="980" cy="775" r="118" fill="none" stroke="#2d63c0" stroke-width="42" stroke-dasharray="144.1510853308595 597.2647809163317" stroke-dashoffset="-343.1755416520199" transform="rotate(-90 980 775)"/><text x="930.6" y="907.0" text-anchor="end" font-size="10.5" font-family="Arial, sans-serif" font-weight="700" fill="#0f172a" stroke="#ffffff" stroke-width="2.6" paint-order="stroke fill">322.04M</text>
<circle cx="980" cy="775" r="118" fill="none" stroke="#6d93d1" stroke-width="42" stroke-dasharray="132.92408595654516 608.491780290646" stroke-dashoffset="-487.32662698287936" transform="rotate(-90 980 775)"/><text x="846.0" y="777.7" text-anchor="end" font-size="10.5" font-family="Arial, sans-serif" font-weight="700" fill="#0f172a" stroke="#ffffff" stroke-width="2.6" paint-order="stroke fill">296.96M</text>
<circle cx="980" cy="775" r="118" fill="none" stroke="#adbfde" stroke-width="42" stroke-dasharray="121.16515330776659 620.2507129394246" stroke-dashoffset="-620.2507129394245" transform="rotate(-90 980 775)"/><text x="914.2" y="651.3" text-anchor="end" font-size="10.5" font-family="Arial, sans-serif" font-weight="700" fill="#0f172a" stroke="#ffffff" stroke-width="2.6" paint-order="stroke fill">270.69M</text>
  <circle cx="980" cy="775" r="74" fill="#fff"/>
  <text x="980" y="759" text-anchor="middle" font-size="16" font-family="Arial, sans-serif" fill="#4b5563">Total Sales</text>
  <text x="980" y="793" text-anchor="middle" font-size="24" font-family="Arial, sans-serif" font-weight="700" fill="#111827">2948.98 M</text>
  <text x="980" y="819" text-anchor="middle" font-size="15" font-family="Arial, sans-serif" fill="#4b5563">MMK</text>
  
    <text x="1157" y="687" font-size="12" font-family="Arial, sans-serif" fill="#374151">Category</text>
    <text x="1490" y="687" text-anchor="end" font-size="12" font-family="Arial, sans-serif" fill="#374151">Sales</text>
    <text x="1550" y="687" text-anchor="end" font-size="12" font-family="Arial, sans-serif" fill="#374151">%</text>
  
<circle cx="1145" cy="705" r="8" fill="#1e3a8a"/>
      <text x="1167" y="713" font-size="12" font-family="Arial, sans-serif" fill="#111827">Surface Covering</text>
      <text x="1490" y="713" text-anchor="end" font-size="12" font-family="Arial, sans-serif" fill="#111827">443.33M</text>
      <text x="1550" y="713" text-anchor="end" font-size="12" font-family="Arial, sans-serif" fill="#111827">27%</text>
<circle cx="1145" cy="747" r="8" fill="#1e3a8a"/>
      <text x="1167" y="755" font-size="12" font-family="Arial, sans-serif" fill="#111827">Home Appliance</text>
      <text x="1490" y="755" text-anchor="end" font-size="12" font-family="Arial, sans-serif" fill="#111827">323.35M</text>
      <text x="1550" y="755" text-anchor="end" font-size="12" font-family="Arial, sans-serif" fill="#111827">20%</text>
<circle cx="1145" cy="789" r="8" fill="#1e3a8a"/>
      <text x="1167" y="797" font-size="12" font-family="Arial, sans-serif" fill="#111827">Sanitary Ware</text>
      <text x="1490" y="797" text-anchor="end" font-size="12" font-family="Arial, sans-serif" fill="#111827">322.04M</text>
      <text x="1550" y="797" text-anchor="end" font-size="12" font-family="Arial, sans-serif" fill="#111827">19%</text>
<circle cx="1145" cy="831" r="8" fill="#1e3a8a"/>
      <text x="1167" y="839" font-size="12" font-family="Arial, sans-serif" fill="#111827">Furniture and Bedding</text>
      <text x="1490" y="839" text-anchor="end" font-size="12" font-family="Arial, sans-serif" fill="#111827">296.96M</text>
      <text x="1550" y="839" text-anchor="end" font-size="12" font-family="Arial, sans-serif" fill="#111827">18%</text>
<circle cx="1145" cy="873" r="8" fill="#1e3a8a"/>
      <text x="1167" y="881" font-size="12" font-family="Arial, sans-serif" fill="#111827">Electrical and Access…</text>
      <text x="1490" y="881" text-anchor="end" font-size="12" font-family="Arial, sans-serif" fill="#111827">270.69M</text>
      <text x="1550" y="881" text-anchor="end" font-size="12" font-family="Arial, sans-serif" fill="#111827">16%</text>
</svg>