<?xml version="1.0" encoding="UTF-8"?>
<svg width="1600" height="1000" viewBox="0 0 1600 1000" xmlns="http://www.w3.org/2000/svg">
  <defs>
    <linearGradient id="bg" x1="0" y1="0" x2="1" y2="1">
      <stop offset="0%" stop-color="#f8fafc"/>
      <stop offset="100%" stop-color="#eef2ff"/>
    </linearGradient>
  </defs>
  <rect width="1600" height="1000" fill="url(#bg)" />

  <text x="32" y="42" font-size="50" font-family="Arial, sans-serif" font-weight="700" fill="#0f172a">Management Monitoring Dashboard</text>
  <text x="1115" y="42" font-size="34" font-family="Arial, sans-serif" fill="#475569">Updated: 5/15/2026, 9:41:48 AM</text>

  <rect x="20" y="78" rx="14" ry="14" width="370" height="130" fill="#fff" stroke="#dbe3ef"/>
  <text x="44" y="120" font-size="28" font-family="Arial, sans-serif" fill="#475569">Total YTD Sales</text>
  <text x="44" y="170" font-size="48" font-family="Arial, sans-serif" font-weight="700" fill="#0f172a">11.24B</text>
  <text x="44" y="196" font-size="22" font-family="Arial, sans-serif" fill="#64748b">Across all branches</text>
  <rect x="410" y="78" rx="14" ry="14" width="370" height="130" fill="#fff" stroke="#dbe3ef"/>
  <text x="434" y="120" font-size="28" font-family="Arial, sans-serif" fill="#475569">Total Invoice</text>
  <text x="434" y="170" font-size="48" font-family="Arial, sans-serif" font-weight="700" fill="#0f172a">25,515</text>
  <text x="434" y="196" font-size="22" font-family="Arial, sans-serif" fill="#64748b">Branches: 3</text>
  <rect x="800" y="78" rx="14" ry="14" width="370" height="130" fill="#fff" stroke="#dbe3ef"/>
  <text x="824" y="120" font-size="28" font-family="Arial, sans-serif" fill="#475569">Kyat / Invoice</text>
  <text x="824" y="170" font-size="48" font-family="Arial, sans-serif" font-weight="700" fill="#0f172a">440,403</text>
  <text x="824" y="196" font-size="22" font-family="Arial, sans-serif" fill="#64748b">Avg ticket size</text>
  <rect x="1190" y="78" rx="14" ry="14" width="370" height="130" fill="#fff" stroke="#dbe3ef"/>
  <text x="1214" y="120" font-size="28" font-family="Arial, sans-serif" fill="#475569">Invoice / Branch</text>
  <text x="1214" y="170" font-size="48" font-family="Arial, sans-serif" font-weight="700" fill="#0f172a">8,505</text>
  <text x="1214" y="196" font-size="22" font-family="Arial, sans-serif" fill="#64748b">Average by branch</text>

  <rect x="20" y="230" rx="14" ry="14" width="760" height="320" fill="#ffffff" stroke="#dbe3ef"/>
  <text x="48" y="274" font-size="36" font-family="Arial, sans-serif" font-weight="700" fill="#0f172a">YTD Sales by Branch</text>
  
      <rect x="545.0" y="340.0" width="136.7" height="175.0" fill="#1d4ed8" rx="8"/>
      <text x="613.3" y="537.0" text-anchor="middle" font-size="18" font-family="Arial, sans-serif" fill="#334155">MM-103-/-Sa…</text>
    

      <rect x="711.7" y="379.6" width="136.7" height="135.4" fill="#1d4ed8" rx="8"/>
      <text x="780.0" y="537.0" text-anchor="middle" font-size="18" font-family="Arial, sans-serif" fill="#334155">MM-101-/-La…</text>
    

      <rect x="878.3" y="463.6" width="136.7" height="51.4" fill="#1d4ed8" rx="8"/>
      <text x="946.7" y="537.0" text-anchor="middle" font-size="18" font-family="Arial, sans-serif" fill="#334155">MM-102-/-Th…</text>
    

  <rect x="800" y="230" rx="14" ry="14" width="780" height="320" fill="#ffffff" stroke="#dbe3ef"/>
  <text x="828" y="274" font-size="36" font-family="Arial, sans-serif" font-weight="700" fill="#0f172a">Top Categories (YTD)</text>
  <text x="828" y="322" font-size="60" font-family="Arial, sans-serif" font-weight="700" fill="#1d4ed8">11.24B</text>
  <text x="828" y="364" font-size="26" font-family="Arial, sans-serif" fill="#64748b">Combined from top 6 categories</text>

  <rect x="20" y="570" rx="14" ry="14" width="780" height="400" fill="#ffffff" stroke="#dbe3ef"/>
  <text x="48" y="614" font-size="36" font-family="Arial, sans-serif" font-weight="700" fill="#0f172a">Sales Performance by Branch</text>
  <text x="520" y="590" font-size="25" font-family="Arial, sans-serif" fill="#0f172a">MM-103-/-Satsan</text>
      <text x="1120" y="590" font-size="25" font-family="Arial, sans-serif" text-anchor="end" fill="#0f172a">5.43B</text>
      <text x="1180" y="590" font-size="25" font-family="Arial, sans-serif" text-anchor="end" fill="#16a34a">48.4%</text>
<text x="520" y="635" font-size="25" font-family="Arial, sans-serif" fill="#0f172a">MM-101-/-Lanthit</text>
      <text x="1120" y="635" font-size="25" font-family="Arial, sans-serif" text-anchor="end" fill="#0f172a">4.20B</text>
      <text x="1180" y="635" font-size="25" font-family="Arial, sans-serif" text-anchor="end" fill="#16a34a">37.4%</text>
<text x="520" y="680" font-size="25" font-family="Arial, sans-serif" fill="#0f172a">MM-102-/-Theik Pan</text>
      <text x="1120" y="680" font-size="25" font-family="Arial, sans-serif" text-anchor="end" fill="#0f172a">1.60B</text>
      <text x="1180" y="680" font-size="25" font-family="Arial, sans-serif" text-anchor="end" fill="#16a34a">14.2%</text>

  <rect x="820" y="570" rx="14" ry="14" width="760" height="400" fill="#ffffff" stroke="#dbe3ef"/>
  <text x="848" y="614" font-size="36" font-family="Arial, sans-serif" font-weight="700" fill="#0f172a">Sales Distribution by Category</text>
  <circle cx="1030" cy="690" r="145" fill="none" stroke="#1d4ed8" stroke-width="58" stroke-dasharray="281.44 629.56" stroke-dashoffset="0.00" transform="rotate(-90 1030 690)"/>
<circle cx="1030" cy="690" r="145" fill="none" stroke="#2563eb" stroke-width="58" stroke-dasharray="267.96 643.04" stroke-dashoffset="-281.44" transform="rotate(-90 1030 690)"/>
<circle cx="1030" cy="690" r="145" fill="none" stroke="#3b82f6" stroke-width="58" stroke-dasharray="203.25 707.75" stroke-dashoffset="-549.41" transform="rotate(-90 1030 690)"/>
<circle cx="1030" cy="690" r="145" fill="none" stroke="#60a5fa" stroke-width="58" stroke-dasharray="129.54 781.46" stroke-dashoffset="-752.66" transform="rotate(-90 1030 690)"/>
<circle cx="1030" cy="690" r="145" fill="none" stroke="#93c5fd" stroke-width="58" stroke-dasharray="59.42 851.58" stroke-dashoffset="-882.20" transform="rotate(-90 1030 690)"/>
<circle cx="1030" cy="690" r="145" fill="none" stroke="#bfdbfe" stroke-width="58" stroke-dasharray="-30.61 941.61" stroke-dashoffset="-941.61" transform="rotate(-90 1030 690)"/>
  <circle cx="1030" cy="690" r="93" fill="#fff"/>
  <text x="1030" y="684" text-anchor="middle" font-size="28" font-family="Arial, sans-serif" fill="#64748b">Total</text>
  <text x="1030" y="720" text-anchor="middle" font-size="52" font-family="Arial, sans-serif" font-weight="700" fill="#0f172a">11.24B</text>
  <text x="1240" y="600" font-size="28" font-family="Arial, sans-serif" fill="#0f172a">10-Home Appliance</text>
      <text x="1530" y="600" text-anchor="end" font-size="28" font-family="Arial, sans-serif" fill="#1e293b">30.9%</text>
<text x="1240" y="652" font-size="28" font-family="Arial, sans-serif" fill="#0f172a">07-Surface Covering</text>
      <text x="1530" y="652" text-anchor="end" font-size="28" font-family="Arial, sans-serif" fill="#1e293b">29.4%</text>
<text x="1240" y="704" font-size="28" font-family="Arial, sans-serif" fill="#0f172a">12-Houseware and Kitchen</text>
      <text x="1530" y="704" text-anchor="end" font-size="28" font-family="Arial, sans-serif" fill="#1e293b">22.3%</text>
<text x="1240" y="756" font-size="28" font-family="Arial, sans-serif" fill="#0f172a">04-Sanitary Ware</text>
      <text x="1530" y="756" text-anchor="end" font-size="28" font-family="Arial, sans-serif" fill="#1e293b">14.2%</text>
<text x="1240" y="808" font-size="28" font-family="Arial, sans-serif" fill="#0f172a">01-Cement and Block</text>
      <text x="1530" y="808" text-anchor="end" font-size="28" font-family="Arial, sans-serif" fill="#1e293b">6.5%</text>
<text x="1240" y="860" font-size="28" font-family="Arial, sans-serif" fill="#0f172a">Promotion/Discount</text>
      <text x="1530" y="860" text-anchor="end" font-size="28" font-family="Arial, sans-serif" fill="#1e293b">-3.4%</text>
</svg>