<?xml version="1.0" encoding="UTF-8"?>
<svg width="1600" height="980" viewBox="0 0 1600 980" xmlns="http://www.w3.org/2000/svg">
  <rect width="1600" height="980" fill="#f5f7fb"/>
  <text x="32" y="40" font-size="48" font-family="Arial, sans-serif" font-weight="700" fill="#111827">Management Monitoring Dashboard</text>
  <text x="560" y="40" font-size="48" font-family="Arial, sans-serif" font-weight="700" fill="#6b7280">(9AM - 10AM)</text>
  <text x="1310" y="38" font-size="42" font-family="Arial, sans-serif" fill="#111827">◷</text>
  <text x="1360" y="38" font-size="42" font-family="Arial, sans-serif" fill="#111827">Last updated 9:49 am</text>

  <rect x="20" y="80" rx="16" ry="16" width="375" height="120" fill="#fff" stroke="#dbe2ef"/>
  <rect x="38" y="100" rx="16" ry="16" width="70" height="70" fill="#0a2f73"/>
  <text x="126" y="118" font-size="35" font-family="Arial, sans-serif" fill="#111827">Total Sales</text>
  <text x="126" y="155" font-size="52" font-family="Arial, sans-serif" font-weight="700" fill="#111827">11236.88 MMK (M)</text>
  <text x="126" y="180" font-size="31" font-family="Arial, sans-serif" fill="#15803d">↗ 8.7% YTD value</text>
<rect x="415" y="80" rx="16" ry="16" width="375" height="120" fill="#fff" stroke="#dbe2ef"/>
  <rect x="433" y="100" rx="16" ry="16" width="70" height="70" fill="#0a2f73"/>
  <text x="521" y="118" font-size="35" font-family="Arial, sans-serif" fill="#111827">Invoice / Day</text>
  <text x="521" y="155" font-size="52" font-family="Arial, sans-serif" font-weight="700" fill="#111827">25,515</text>
  <text x="521" y="180" font-size="31" font-family="Arial, sans-serif" fill="#15803d">↗ 5.3% YTD value</text>
<rect x="810" y="80" rx="16" ry="16" width="375" height="120" fill="#fff" stroke="#dbe2ef"/>
  <rect x="828" y="100" rx="16" ry="16" width="70" height="70" fill="#0a2f73"/>
  <text x="916" y="118" font-size="35" font-family="Arial, sans-serif" fill="#111827">Kyat / Invoice</text>
  <text x="916" y="155" font-size="52" font-family="Arial, sans-serif" font-weight="700" fill="#111827">440,403 MMK</text>
  <text x="916" y="180" font-size="31" font-family="Arial, sans-serif" fill="#dc2626">↘ -2.9% YTD value</text>
<rect x="1205" y="80" rx="16" ry="16" width="375" height="120" fill="#fff" stroke="#dbe2ef"/>
  <rect x="1223" y="100" rx="16" ry="16" width="70" height="70" fill="#0a2f73"/>
  <text x="1311" y="118" font-size="35" font-family="Arial, sans-serif" fill="#111827">No. of Customer</text>
  <text x="1311" y="155" font-size="52" font-family="Arial, sans-serif" font-weight="700" fill="#111827">7,399</text>
  <text x="1311" y="180" font-size="31" font-family="Arial, sans-serif" fill="#15803d">↗ 4.2% YTD value</text>

  <rect x="20" y="215" rx="16" ry="16" width="375" height="330" fill="#072860" stroke="#062150"/>
  <circle cx="108" cy="305" r="55" fill="none" stroke="#e5e7eb" stroke-width="20"/>
  <circle cx="108" cy="305" r="55" fill="none" stroke="#f87171" stroke-width="20" stroke-dasharray="60.720000000000006 345" transform="rotate(-90 108 305)"/>
  <text x="84" y="314" font-size="50" font-family="Arial, sans-serif" font-weight="700" fill="#f87171">17.6%</text>
  <text x="180" y="300" font-size="46" font-family="Arial, sans-serif" font-weight="700" fill="#fff">TODAY SALE</text>
  <text x="180" y="332" font-size="31" font-family="Arial, sans-serif" fill="#dbeafe">Grand Total vs. YTD)</text>
  <line x1="56" y1="375" x2="356" y2="375" stroke="#8aa2ce"/>
  <text x="56" y="418" font-size="42" font-family="Arial, sans-serif" fill="#fff">Today:</text>
  <text x="370" y="418" text-anchor="end" font-size="48" font-family="Arial, sans-serif" font-weight="700" fill="#fff">11236.88M MMK</text>
  <text x="56" y="458" font-size="42" font-family="Arial, sans-serif" fill="#fca5a5">↘ YTD avg:</text>
  <text x="370" y="458" text-anchor="end" font-size="48" font-family="Arial, sans-serif" font-weight="700" fill="#fff">9551.34M MMK</text>

  <rect x="415" y="215" rx="16" ry="16" width="505" height="330" fill="#fff" stroke="#dbe2ef"/>
  <text x="438" y="245" font-size="38" font-family="Arial, sans-serif" font-weight="700" fill="#111827">YTD vs Current Day Comparison</text>
  <line x1="445" y1="280" x2="890" y2="280" stroke="#e5e7eb"/>
<line x1="445" y1="330" x2="890" y2="330" stroke="#e5e7eb"/>
<line x1="445" y1="380" x2="890" y2="380" stroke="#e5e7eb"/>
<line x1="445" y1="430" x2="890" y2="430" stroke="#e5e7eb"/>
<line x1="445" y1="480" x2="890" y2="480" stroke="#e5e7eb"/>
<rect x="457" y="401.60831818138195" width="43.625" height="78.39168181861807" fill="#032a6b"/>
<rect x="506.625" y="413.3670704541746" width="43.625" height="66.63292954582536" fill="#0d4ea6"/>
<text x="507.625" y="508" text-anchor="middle" font-size="30" font-family="Arial, sans-serif" fill="#111827">Sales</text>
<rect x="568.25" y="302" width="43.625" height="178" fill="#032a6b"/>
<rect x="617.875" y="312.68" width="43.625" height="167.32" fill="#0d4ea6"/>
<text x="618.875" y="508" text-anchor="middle" font-size="30" font-family="Arial, sans-serif" fill="#111827">Invoice/Day</text>
<rect x="679.5" y="476.9276236794584" width="43.625" height="3.0723763205415664" fill="#032a6b"/>
<rect x="729.125" y="476.8354523898422" width="43.625" height="3.1645476101578134" fill="#0d4ea6"/>
<text x="730.125" y="508" text-anchor="middle" font-size="30" font-family="Arial, sans-serif" fill="#111827">Kyat/Invoice</text>
<rect x="790.75" y="428.3824417009602" width="43.625" height="51.61755829903978" fill="#032a6b"/>
<rect x="840.375" y="430.4471440329218" width="43.625" height="49.55285596707819" fill="#0d4ea6"/>
<text x="841.375" y="508" text-anchor="middle" font-size="30" font-family="Arial, sans-serif" fill="#111827">No. of Customer</text>

  <rect x="935" y="215" rx="16" ry="16" width="645" height="330" fill="#fff" stroke="#dbe2ef"/>
  <rect x="935" y="215" rx="16" ry="16" width="645" height="58" fill="#072860"/>
  <text x="958" y="253" font-size="38" font-family="Arial, sans-serif" font-weight="700" fill="#fff">SALES TREND (Today vs YTD Avg)</text>
  <line x1="972" y1="290" x2="1532" y2="290" stroke="#e5e7eb"/>
<line x1="972" y1="345" x2="1532" y2="345" stroke="#e5e7eb"/>
<line x1="972" y1="400" x2="1532" y2="400" stroke="#e5e7eb"/>
<line x1="972" y1="455" x2="1532" y2="455" stroke="#e5e7eb"/>
<rect x="985" y="416.340206185567" width="43" height="38.659793814432994" fill="#072860"/>
<rect x="1034" y="422.13917525773195" width="43" height="32.86082474226804" fill="#b0bfd4"/>
<text x="1035" y="485" text-anchor="middle" font-size="30" font-family="Arial, sans-serif" fill="#111827">9:00</text>
<rect x="1097" y="388.50515463917526" width="43" height="66.49484536082474" fill="#072860"/>
<rect x="1146" y="398.47938144329896" width="43" height="56.52061855670103" fill="#b0bfd4"/>
<text x="1147" y="485" text-anchor="middle" font-size="30" font-family="Arial, sans-serif" fill="#111827">9:15</text>
<rect x="1209" y="360.6701030927835" width="43" height="94.3298969072165" fill="#072860"/>
<rect x="1258" y="374.819587628866" width="43" height="80.18041237113403" fill="#b0bfd4"/>
<text x="1259" y="485" text-anchor="middle" font-size="30" font-family="Arial, sans-serif" fill="#111827">9:30</text>
<rect x="1321" y="332.83505154639175" width="43" height="122.16494845360826" fill="#072860"/>
<rect x="1370" y="351.159793814433" width="43" height="103.84020618556703" fill="#b0bfd4"/>
<text x="1371" y="485" text-anchor="middle" font-size="30" font-family="Arial, sans-serif" fill="#111827">9:45</text>
<rect x="1433" y="305" width="43" height="150" fill="#072860"/>
<rect x="1482" y="327.5" width="43" height="127.5" fill="#b0bfd4"/>
<text x="1483" y="485" text-anchor="middle" font-size="30" font-family="Arial, sans-serif" fill="#111827">10:00</text>
  <text x="972" y="507" font-size="36" font-family="Arial, sans-serif" fill="#111827">Total Today Sales</text>
  <text x="972" y="536" font-size="48" font-family="Arial, sans-serif" font-weight="700" fill="#111827">11236.88M</text>
  <text x="1220" y="507" font-size="36" font-family="Arial, sans-serif" fill="#111827">YTD Avg (Same Time)</text>
  <text x="1220" y="536" font-size="48" font-family="Arial, sans-serif" font-weight="700" fill="#111827">9551.34M</text>

  <rect x="20" y="565" rx="16" ry="16" width="770" height="385" fill="#fff" stroke="#dbe2ef"/>
  <rect x="20" y="565" rx="16" ry="16" width="770" height="56" fill="#072860"/>
  <text x="244" y="603" font-size="40" font-family="Arial, sans-serif" font-weight="700" fill="#fff">Sales Performance by Region &amp; Branch</text>
  <rect x="360" y="620" width="420" height="32" fill="#072860"/>
<text x="380" y="645" font-size="34" font-family="Arial, sans-serif" fill="#fff">Location</text>
<text x="520" y="645" font-size="34" font-family="Arial, sans-serif" fill="#fff">Today</text>
<text x="615" y="645" font-size="34" font-family="Arial, sans-serif" fill="#fff">Growth</text>
<text x="690" y="645" font-size="34" font-family="Arial, sans-serif" fill="#fff">Top Category</text>
<text x="380" y="655" font-size="34" font-family="Arial, sans-serif" fill="#111827">MM-103-/-Satsan</text>
<text x="520" y="655" font-size="34" font-family="Arial, sans-serif" fill="#111827">5434.69M</text>
<text x="615" y="655" font-size="34" font-family="Arial, sans-serif" fill="#15803d">+45.1%</text>
<text x="705" y="655" font-size="34" font-family="Arial, sans-serif" fill="#111827">Mixed</text>
<text x="380" y="701" font-size="34" font-family="Arial, sans-serif" fill="#111827">MM-101-/-Lanthit</text>
<text x="520" y="701" font-size="34" font-family="Arial, sans-serif" fill="#111827">4204.39M</text>
<text x="615" y="701" font-size="34" font-family="Arial, sans-serif" fill="#15803d">+12.2%</text>
<text x="705" y="701" font-size="34" font-family="Arial, sans-serif" fill="#111827">Mixed</text>
<text x="380" y="747" font-size="34" font-family="Arial, sans-serif" fill="#111827">MM-102-/-Theik Pan</text>
<text x="520" y="747" font-size="34" font-family="Arial, sans-serif" fill="#111827">1597.79M</text>
<text x="615" y="747" font-size="34" font-family="Arial, sans-serif" fill="#dc2626">-57.3%</text>
<text x="705" y="747" font-size="34" font-family="Arial, sans-serif" fill="#111827">Mixed</text>

  <rect x="810" y="565" rx="16" ry="16" width="770" height="385" fill="#fff" stroke="#dbe2ef"/>
  <rect x="810" y="565" rx="16" ry="16" width="770" height="56" fill="#072860"/>
  <text x="834" y="603" font-size="40" font-family="Arial, sans-serif" font-weight="700" fill="#fff">Sales Distribution By Category (Today)</text>
  <circle cx="980" cy="760" r="118" fill="none" stroke="#0b3b92" stroke-width="42" stroke-dasharray="221.60458699099271 519.8112792561984" stroke-dashoffset="0" transform="rotate(-90 980 760)"/>
<circle cx="980" cy="760" r="118" fill="none" stroke="#144bb0" stroke-width="42" stroke-dasharray="210.9914878636678 530.4243783835234" stroke-dashoffset="-221.60458699099271" transform="rotate(-90 980 760)"/>
<circle cx="980" cy="760" r="118" fill="none" stroke="#2d63c0" stroke-width="42" stroke-dasharray="160.04004349816782 581.3758227490233" stroke-dashoffset="-432.5960748546605" transform="rotate(-90 980 760)"/>
<circle cx="980" cy="760" r="118" fill="none" stroke="#6d93d1" stroke-width="42" stroke-dasharray="101.99563991471186 639.4202263324793" stroke-dashoffset="-592.6361183528284" transform="rotate(-90 980 760)"/>
<circle cx="980" cy="760" r="118" fill="none" stroke="#adbfde" stroke-width="42" stroke-dasharray="46.78410797965098 694.6317582675401" stroke-dashoffset="-694.6317582675402" transform="rotate(-90 980 760)"/>
  <circle cx="980" cy="760" r="74" fill="#fff"/>
  <text x="980" y="744" text-anchor="middle" font-size="36" font-family="Arial, sans-serif" fill="#4b5563">Total Sales</text>
  <text x="980" y="780" text-anchor="middle" font-size="54" font-family="Arial, sans-serif" font-weight="700" fill="#111827">11236.88M</text>
  <text x="980" y="812" text-anchor="middle" font-size="38" font-family="Arial, sans-serif" fill="#4b5563">MMK</text>
  <circle cx="1145" cy="690" r="8" fill="#1e3a8a"/>
      <text x="1167" y="700" font-size="36" font-family="Arial, sans-serif" fill="#111827">Home Appliance</text>
      <text x="1460" y="700" font-size="36" font-family="Arial, sans-serif" fill="#111827">3471.50M</text>
      <text x="1530" y="700" font-size="36" font-family="Arial, sans-serif" fill="#111827">31%</text>
<circle cx="1145" cy="732" r="8" fill="#1e3a8a"/>
      <text x="1167" y="742" font-size="36" font-family="Arial, sans-serif" fill="#111827">Surface Covering</text>
      <text x="1460" y="742" font-size="36" font-family="Arial, sans-serif" fill="#111827">3305.24M</text>
      <text x="1530" y="742" font-size="36" font-family="Arial, sans-serif" fill="#111827">29%</text>
<circle cx="1145" cy="774" r="8" fill="#1e3a8a"/>
      <text x="1167" y="784" font-size="36" font-family="Arial, sans-serif" fill="#111827">Houseware and Kitchen</text>
      <text x="1460" y="784" font-size="36" font-family="Arial, sans-serif" fill="#111827">2507.07M</text>
      <text x="1530" y="784" font-size="36" font-family="Arial, sans-serif" fill="#111827">22%</text>
<circle cx="1145" cy="816" r="8" fill="#1e3a8a"/>
      <text x="1167" y="826" font-size="36" font-family="Arial, sans-serif" fill="#111827">Sanitary Ware</text>
      <text x="1460" y="826" font-size="36" font-family="Arial, sans-serif" fill="#111827">1597.79M</text>
      <text x="1530" y="826" font-size="36" font-family="Arial, sans-serif" fill="#111827">14%</text>
<circle cx="1145" cy="858" r="8" fill="#1e3a8a"/>
      <text x="1167" y="868" font-size="36" font-family="Arial, sans-serif" fill="#111827">Cement and Block</text>
      <text x="1460" y="868" font-size="36" font-family="Arial, sans-serif" fill="#111827">732.89M</text>
      <text x="1530" y="868" font-size="36" font-family="Arial, sans-serif" fill="#111827">7%</text>
</svg>