<?xml version="1.0" encoding="UTF-8"?>
<svg width="1600" height="980" viewBox="0 0 1600 980" xmlns="http://www.w3.org/2000/svg">
  <rect width="1600" height="980" fill="#f5f7fb"/>
  <text x="28" y="42" font-size="54" font-family="Arial, sans-serif" font-weight="700" fill="#111827">Management Monitoring Dashboard</text>
  <text x="545" y="42" font-size="54" font-family="Arial, sans-serif" font-weight="700" fill="#6b7280">(9AM - 10AM)</text>
  <text x="1310" y="39" font-size="42" font-family="Arial, sans-serif" fill="#111827">◷</text>
  <text x="1360" y="39" font-size="54" font-family="Arial, sans-serif" fill="#111827">Last updated 9:50 am</text>

  <rect x="20" y="80" rx="16" ry="16" width="375" height="120" fill="#fff" stroke="#dbe2ef"/>
  <rect x="38" y="100" rx="16" ry="16" width="70" height="70" fill="#0a2f73"/>
  <text x="126" y="116" font-size="16" font-family="Arial, sans-serif" fill="#111827">Total Sales</text>
  <text x="126" y="154" font-size="22" font-family="Arial, sans-serif" font-weight="700" fill="#111827">186174.52 MMK (M)</text>
  <text x="126" y="178" font-size="15" font-family="Arial, sans-serif" fill="#15803d">↗ 8.7% YTD value</text>
<rect x="415" y="80" rx="16" ry="16" width="375" height="120" fill="#fff" stroke="#dbe2ef"/>
  <rect x="433" y="100" rx="16" ry="16" width="70" height="70" fill="#0a2f73"/>
  <text x="521" y="116" font-size="16" font-family="Arial, sans-serif" fill="#111827">Invoice / Day</text>
  <text x="521" y="154" font-size="22" font-family="Arial, sans-serif" font-weight="700" fill="#111827">443,364</text>
  <text x="521" y="178" font-size="15" font-family="Arial, sans-serif" fill="#15803d">↗ 5.3% YTD value</text>
<rect x="810" y="80" rx="16" ry="16" width="375" height="120" fill="#fff" stroke="#dbe2ef"/>
  <rect x="828" y="100" rx="16" ry="16" width="70" height="70" fill="#0a2f73"/>
  <text x="916" y="116" font-size="16" font-family="Arial, sans-serif" fill="#111827">Kyat / Invoice</text>
  <text x="916" y="154" font-size="22" font-family="Arial, sans-serif" font-weight="700" fill="#111827">419,913 MMK</text>
  <text x="916" y="178" font-size="15" font-family="Arial, sans-serif" fill="#dc2626">↘ -2.9% YTD value</text>
<rect x="1205" y="80" rx="16" ry="16" width="375" height="120" fill="#fff" stroke="#dbe2ef"/>
  <rect x="1223" y="100" rx="16" ry="16" width="70" height="70" fill="#0a2f73"/>
  <text x="1311" y="116" font-size="16" font-family="Arial, sans-serif" fill="#111827">No. of Customer</text>
  <text x="1311" y="154" font-size="22" font-family="Arial, sans-serif" font-weight="700" fill="#111827">128,576</text>
  <text x="1311" y="178" font-size="15" font-family="Arial, sans-serif" fill="#15803d">↗ 4.2% YTD value</text>
  <rect x="20" y="215" rx="16" ry="16" width="375" height="330" fill="#072860" stroke="#062150"/>
  <circle cx="108" cy="305" r="55" fill="none" stroke="#e5e7eb" stroke-width="20"/>
  <circle cx="108" cy="305" r="55" fill="none" stroke="#f87171" stroke-width="20" stroke-dasharray="60.720000000000006 345" transform="rotate(-90 108 305)"/>
  <text x="73" y="315" font-size="20" font-family="Arial, sans-serif" font-weight="700" fill="#f87171">17.6%</text>
  <text x="180" y="300" font-size="44" font-family="Arial, sans-serif" font-weight="700" fill="#fff">TODAY SALE</text>
  <text x="180" y="330" font-size="18" font-family="Arial, sans-serif" fill="#dbeafe">Grand Total vs. YTD</text>
  <line x1="56" y1="375" x2="356" y2="375" stroke="#8aa2ce"/>
  <text x="56" y="418" font-size="20" font-family="Arial, sans-serif" fill="#fff">Today:</text>
  <text x="370" y="418" text-anchor="end" font-size="50" font-family="Arial, sans-serif" font-weight="700" fill="#fff">186174.52M MMK</text>
  <text x="56" y="458" font-size="20" font-family="Arial, sans-serif" fill="#fca5a5">↘ YTD avg:</text>
  <text x="370" y="458" text-anchor="end" font-size="50" font-family="Arial, sans-serif" font-weight="700" fill="#fff">158248.34M MMK</text>

  <rect x="415" y="215" rx="16" ry="16" width="505" height="330" fill="#fff" stroke="#dbe2ef"/>
  <text x="438" y="245" font-size="24" font-family="Arial, sans-serif" font-weight="700" fill="#111827">YTD vs Current Day Comparison</text>
  <line x1="445" y1="280" x2="890" y2="280" stroke="#e5e7eb"/>
<line x1="445" y1="330" x2="890" y2="330" stroke="#e5e7eb"/>
<line x1="445" y1="380" x2="890" y2="380" stroke="#e5e7eb"/>
<line x1="445" y1="430" x2="890" y2="430" stroke="#e5e7eb"/>
<line x1="445" y1="480" x2="890" y2="480" stroke="#e5e7eb"/>
<rect x="457" y="405.25540135882886" width="43.625" height="74.74459864117114" fill="#032a6b"/>
<rect x="506.625" y="416.46709115500454" width="43.625" height="63.53290884499547" fill="#0d4ea6"/>
<text x="507.625" y="508" text-anchor="middle" font-size="12" font-family="Arial, sans-serif" fill="#111827">Sales</text>
<rect x="568.25" y="302" width="43.625" height="178" fill="#032a6b"/>
<rect x="617.875" y="312.68" width="43.625" height="167.32" fill="#0d4ea6"/>
<text x="618.875" y="508" text-anchor="middle" font-size="12" font-family="Arial, sans-serif" fill="#111827">Invoice/Day</text>
<rect x="679.5" y="479.83141482249084" width="43.625" height="0.16858517750915983" fill="#032a6b"/>
<rect x="729.125" y="479.8263572671656" width="43.625" height="0.17364273283443463" fill="#0d4ea6"/>
<text x="730.125" y="508" text-anchor="middle" font-size="12" font-family="Arial, sans-serif" fill="#111827">Kyat/Invoice</text>
<rect x="790.75" y="428.37982335056523" width="43.625" height="51.62017664943478" fill="#032a6b"/>
<rect x="840.375" y="430.4446304165426" width="43.625" height="49.55536958345738" fill="#0d4ea6"/>
<text x="841.375" y="508" text-anchor="middle" font-size="12" font-family="Arial, sans-serif" fill="#111827">Customers</text>

  <rect x="935" y="215" rx="16" ry="16" width="645" height="330" fill="#fff" stroke="#dbe2ef"/>
  <rect x="935" y="215" rx="16" ry="16" width="645" height="58" fill="#072860"/>
  <text x="958" y="253" font-size="24" font-family="Arial, sans-serif" font-weight="700" fill="#fff">SALES TREND (Today vs YTD Avg)</text>
  <line x1="972" y1="290" x2="1532" y2="290" stroke="#e5e7eb"/>
<line x1="972" y1="345" x2="1532" y2="345" stroke="#e5e7eb"/>
<line x1="972" y1="400" x2="1532" y2="400" stroke="#e5e7eb"/>
<line x1="972" y1="455" x2="1532" y2="455" stroke="#e5e7eb"/>
<rect x="985" y="416.340206185567" width="43" height="38.659793814432994" fill="#072860"/>
<rect x="1034" y="422.13917525773195" width="43" height="32.86082474226804" fill="#b0bfd4"/>
<text x="1035" y="485" text-anchor="middle" font-size="12" font-family="Arial, sans-serif" fill="#111827">9:00</text>
<rect x="1097" y="388.50515463917526" width="43" height="66.49484536082475" fill="#072860"/>
<rect x="1146" y="398.47938144329896" width="43" height="56.52061855670104" fill="#b0bfd4"/>
<text x="1147" y="485" text-anchor="middle" font-size="12" font-family="Arial, sans-serif" fill="#111827">9:15</text>
<rect x="1209" y="360.6701030927835" width="43" height="94.32989690721651" fill="#072860"/>
<rect x="1258" y="374.819587628866" width="43" height="80.18041237113404" fill="#b0bfd4"/>
<text x="1259" y="485" text-anchor="middle" font-size="12" font-family="Arial, sans-serif" fill="#111827">9:30</text>
<rect x="1321" y="332.8350515463917" width="43" height="122.16494845360828" fill="#072860"/>
<rect x="1370" y="351.159793814433" width="43" height="103.84020618556703" fill="#b0bfd4"/>
<text x="1371" y="485" text-anchor="middle" font-size="12" font-family="Arial, sans-serif" fill="#111827">9:45</text>
<rect x="1433" y="305" width="43" height="150" fill="#072860"/>
<rect x="1482" y="327.5" width="43" height="127.50000000000001" fill="#b0bfd4"/>
<text x="1483" y="485" text-anchor="middle" font-size="12" font-family="Arial, sans-serif" fill="#111827">10:00</text>
  <text x="972" y="535" font-size="20" font-family="Arial, sans-serif" fill="#111827">Total Today Sales: <tspan font-weight="700">186174.52M</tspan></text>
  <text x="1230" y="535" font-size="20" font-family="Arial, sans-serif" fill="#111827">YTD Avg: <tspan font-weight="700">158248.34M</tspan></text>

  <rect x="20" y="565" rx="16" ry="16" width="770" height="385" fill="#fff" stroke="#dbe2ef"/>
  <rect x="20" y="565" rx="16" ry="16" width="770" height="56" fill="#072860"/>
  <text x="243" y="602" font-size="24" font-family="Arial, sans-serif" font-weight="700" fill="#fff">Sales Performance by Region &amp; Branch</text>
  <rect x="360" y="622" width="420" height="30" fill="#072860"/>
<text x="380" y="642" font-size="12" font-family="Arial, sans-serif" fill="#fff">Location</text>
<text x="520" y="642" font-size="12" font-family="Arial, sans-serif" fill="#fff">Today</text>
<text x="615" y="642" font-size="12" font-family="Arial, sans-serif" fill="#fff">Growth</text>
<text x="690" y="642" font-size="12" font-family="Arial, sans-serif" fill="#fff">Top Category</text>
<text x="380" y="665" font-size="12" font-family="Arial, sans-serif" fill="#111827">MM-105-/-Mawlamyine</text>
<text x="520" y="665" font-size="12" font-family="Arial, sans-serif" fill="#111827">26077.39M</text>
<text x="615" y="665" font-size="12" font-family="Arial, sans-serif" fill="#dc2626">-30%</text>
<text x="705" y="665" font-size="12" font-family="Arial, sans-serif" fill="#111827">Mixed</text>
<text x="380" y="711" font-size="12" font-family="Arial, sans-serif" fill="#111827">MM-103-/-Satsan</text>
<text x="520" y="711" font-size="12" font-family="Arial, sans-serif" fill="#111827">24271.54M</text>
<text x="615" y="711" font-size="12" font-family="Arial, sans-serif" fill="#dc2626">-34.8%</text>
<text x="705" y="711" font-size="12" font-family="Arial, sans-serif" fill="#111827">Mixed</text>
<text x="380" y="757" font-size="12" font-family="Arial, sans-serif" fill="#111827">MM-101-/-Lanthit</text>
<text x="520" y="757" font-size="12" font-family="Arial, sans-serif" fill="#111827">20918.23M</text>
<text x="615" y="757" font-size="12" font-family="Arial, sans-serif" fill="#dc2626">-43.8%</text>
<text x="705" y="757" font-size="12" font-family="Arial, sans-serif" fill="#111827">Mixed</text>
<text x="380" y="803" font-size="12" font-family="Arial, sans-serif" fill="#111827">MM-104-/-East Dagon</text>
<text x="520" y="803" font-size="12" font-family="Arial, sans-serif" fill="#111827">16216.11M</text>
<text x="615" y="803" font-size="12" font-family="Arial, sans-serif" fill="#dc2626">-56.4%</text>
<text x="705" y="803" font-size="12" font-family="Arial, sans-serif" fill="#111827">Mixed</text>
<text x="380" y="849" font-size="12" font-family="Arial, sans-serif" fill="#111827">MM-107-/-Hlaing Tharyar</text>
<text x="520" y="849" font-size="12" font-family="Arial, sans-serif" fill="#111827">15415.83M</text>
<text x="615" y="849" font-size="12" font-family="Arial, sans-serif" fill="#dc2626">-58.6%</text>
<text x="705" y="849" font-size="12" font-family="Arial, sans-serif" fill="#111827">Mixed</text>

  <rect x="810" y="565" rx="16" ry="16" width="770" height="385" fill="#fff" stroke="#dbe2ef"/>
  <rect x="810" y="565" rx="16" ry="16" width="770" height="56" fill="#072860"/>
  <text x="834" y="602" font-size="24" font-family="Arial, sans-serif" font-weight="700" fill="#fff">Sales Distribution By Category (Today)</text>
  <circle cx="980" cy="760" r="118" fill="none" stroke="#0b3b92" stroke-width="42" stroke-dasharray="188.1186665775942 553.2971996695969" stroke-dashoffset="0" transform="rotate(-90 980 760)"/>
<circle cx="980" cy="760" r="118" fill="none" stroke="#144bb0" stroke-width="42" stroke-dasharray="181.3335582364264 560.0823080107648" stroke-dashoffset="-188.1186665775942" transform="rotate(-90 980 760)"/>
<circle cx="980" cy="760" r="118" fill="none" stroke="#2d63c0" stroke-width="42" stroke-dasharray="128.55375263683698 612.8621136103542" stroke-dashoffset="-369.4522248140206" transform="rotate(-90 980 760)"/>
<circle cx="980" cy="760" r="118" fill="none" stroke="#6d93d1" stroke-width="42" stroke-dasharray="122.33781988150339 619.0780463656878" stroke-dashoffset="-498.0059774508576" transform="rotate(-90 980 760)"/>
<circle cx="980" cy="760" r="118" fill="none" stroke="#adbfde" stroke-width="42" stroke-dasharray="121.07206891483031 620.3437973323609" stroke-dashoffset="-620.343797332361" transform="rotate(-90 980 760)"/>
  <circle cx="980" cy="760" r="74" fill="#fff"/>
  <text x="980" y="744" text-anchor="middle" font-size="16" font-family="Arial, sans-serif" fill="#4b5563">Total Sales</text>
  <text x="980" y="778" text-anchor="middle" font-size="24" font-family="Arial, sans-serif" font-weight="700" fill="#111827">186174.52M</text>
  <text x="980" y="804" text-anchor="middle" font-size="15" font-family="Arial, sans-serif" fill="#4b5563">MMK</text>
  <circle cx="1145" cy="690" r="8" fill="#1e3a8a"/>
      <text x="1167" y="698" font-size="12" font-family="Arial, sans-serif" fill="#111827">Surface Covering</text>
      <text x="1460" y="698" font-size="12" font-family="Arial, sans-serif" fill="#111827">25544.53M</text>
      <text x="1530" y="698" font-size="12" font-family="Arial, sans-serif" fill="#111827">14%</text>
<circle cx="1145" cy="732" r="8" fill="#1e3a8a"/>
      <text x="1167" y="740" font-size="12" font-family="Arial, sans-serif" fill="#111827">Home Appliance</text>
      <text x="1460" y="740" font-size="12" font-family="Arial, sans-serif" fill="#111827">24623.18M</text>
      <text x="1530" y="740" font-size="12" font-family="Arial, sans-serif" fill="#111827">13%</text>
<circle cx="1145" cy="774" r="8" fill="#1e3a8a"/>
      <text x="1167" y="782" font-size="12" font-family="Arial, sans-serif" fill="#111827">Paint and Chemical</text>
      <text x="1460" y="782" font-size="12" font-family="Arial, sans-serif" fill="#111827">17456.24M</text>
      <text x="1530" y="782" font-size="12" font-family="Arial, sans-serif" fill="#111827">9%</text>
<circle cx="1145" cy="816" r="8" fill="#1e3a8a"/>
      <text x="1167" y="824" font-size="12" font-family="Arial, sans-serif" fill="#111827">Sanitary Ware</text>
      <text x="1460" y="824" font-size="12" font-family="Arial, sans-serif" fill="#111827">16612.18M</text>
      <text x="1530" y="824" font-size="12" font-family="Arial, sans-serif" fill="#111827">9%</text>
<circle cx="1145" cy="858" r="8" fill="#1e3a8a"/>
      <text x="1167" y="866" font-size="12" font-family="Arial, sans-serif" fill="#111827">Furniture and Bedding</text>
      <text x="1460" y="866" font-size="12" font-family="Arial, sans-serif" fill="#111827">16440.31M</text>
      <text x="1530" y="866" font-size="12" font-family="Arial, sans-serif" fill="#111827">9%</text>
</svg>